<svg width="12" height="13" viewBox="0 0 12 13" fill="none" xmlns="http://www.w3.org/2000/svg">
<g clip-path="url(#clip0_51_20)">
<path d="M6.06738 1.55707C4.21235 1.55707 2.71204 3.05739 2.71204 4.91241C2.71204 7.42892 6.06738 11.1438 6.06738 11.1438C6.06738 11.1438 9.42273 7.42892 9.42273 4.91241C9.42273 3.05739 7.92241 1.55707 6.06738 1.55707ZM3.67071 4.91241C3.67071 3.58945 4.74442 2.51574 6.06738 2.51574C7.39035 2.51574 8.46406 3.58945 8.46406 4.91241C8.46406 6.2929 7.08357 8.35883 6.06738 9.64824C5.07036 8.36842 3.67071 6.27852 3.67071 4.91241Z" fill="#676767"/>
<path d="M6.06736 6.11079C6.72918 6.11079 7.26569 5.57427 7.26569 4.91245C7.26569 4.25063 6.72918 3.71411 6.06736 3.71411C5.40553 3.71411 4.86902 4.25063 4.86902 4.91245C4.86902 5.57427 5.40553 6.11079 6.06736 6.11079Z" fill="#676767"/>
</g>
<defs>
<clipPath id="clip0_51_20">
<rect width="11.504" height="11.504" fill="white" transform="translate(0.31543 0.598389)"/>
</clipPath>
</defs>
</svg>
