<svg width="358" height="358" viewBox="0 0 358 358" fill="none" xmlns="http://www.w3.org/2000/svg">
<path d="M180.299 338.498C271.406 337.532 344.81 294.109 344.253 241.51C343.695 188.912 269.387 147.055 178.28 148.021C87.1729 148.987 13.7682 192.409 14.3258 245.008C14.8834 297.607 89.1921 339.463 180.299 338.498Z" fill="#F5F5F5"/>
<path d="M43.4373 214.68L49.058 211.339C49.058 211.339 52.3166 197.264 50.8324 184.638C48.7496 166.9 37.0071 160.329 32.5555 161.91C28.1039 163.492 26.8933 168.673 34.3647 179.177C38.7716 185.388 44.2396 198.318 43.4373 214.68Z" fill="#322375"/>
<g opacity="0.15">
<path opacity="0.15" d="M43.4374 214.68L49.0582 211.339C49.0582 211.339 52.3168 197.264 50.8325 184.638C48.7497 166.9 37.0072 160.329 32.5556 161.91C28.104 163.492 26.8934 168.673 34.3648 179.177C38.7717 185.388 44.2397 198.318 43.4374 214.68Z" fill="black"/>
</g>
<path d="M45.7181 207.755L45.6686 207.755C45.5654 207.738 45.4735 207.68 45.4129 207.594C45.3524 207.509 45.3282 207.403 45.3457 207.299C48.2895 190.872 42.368 172.517 35.1962 164.922C35.1396 164.844 35.1135 164.748 35.1228 164.652C35.1321 164.556 35.1761 164.467 35.2466 164.401C35.3171 164.335 35.4092 164.297 35.5056 164.294C35.602 164.292 35.6961 164.324 35.7702 164.386C43.0705 172.086 49.1084 190.765 46.1245 207.404C46.1132 207.503 46.0651 207.594 45.9898 207.659C45.9145 207.724 45.8175 207.758 45.7181 207.755Z" fill="white"/>
<path d="M28.6544 223.426C27.7613 223.888 25.3574 221.878 24.6875 221.383C23.5455 220.527 22.6424 219.393 22.0649 218.088C21.4117 216.608 21.236 214.961 21.5625 213.377C21.7322 212.54 21.9597 211.715 22.2434 210.91C22.5107 210.115 22.7708 209.313 23.0382 208.518C23.3503 207.75 23.5027 206.925 23.4862 206.096C23.3412 204.429 21.9214 203.214 20.6164 202.16C19.1901 201.001 17.7033 199.476 17.7954 197.488C17.9498 195.943 18.6134 194.494 19.6818 193.367C20.6805 192.197 21.8504 191.181 22.7634 189.941C23.4724 189.08 23.8696 188.004 23.8906 186.889C23.8253 186.202 23.621 185.535 23.2901 184.93C22.6397 183.6 21.7571 182.38 21.3321 180.97C20.9071 179.561 21.0372 177.827 22.1654 176.875C23.0903 176.087 24.4189 176.031 25.6219 176.131C26.7486 176.316 27.8217 176.744 28.7672 177.384C31.8556 179.268 33.5151 183.082 36.8114 184.567C38.1265 185.035 39.4694 185.419 40.8324 185.72C42.166 186.13 43.5172 186.879 44.0892 188.145C45.2258 190.657 42.8178 193.596 43.5811 196.239C44.2564 198.579 46.4443 199.553 47.6406 201.69C48.1184 202.63 48.2833 203.698 48.1113 204.739C47.9301 206.501 47.4283 208.214 46.6307 209.796C45.7333 211.421 44.737 212.99 43.6474 214.493C43.6474 214.493 28.795 223.354 28.6544 223.426Z" fill="#322375"/>
<path d="M37.3017 218.803C37.2496 218.799 37.1988 218.785 37.1522 218.761C37.1056 218.738 37.0641 218.705 37.0302 218.665C36.9962 218.625 36.9705 218.579 36.9544 218.53C36.9384 218.48 36.9323 218.427 36.9366 218.375C38.1856 202.808 31.5369 185.203 26.3771 180.005C26.3404 179.969 26.3111 179.926 26.2909 179.879C26.2708 179.832 26.2601 179.781 26.2595 179.73C26.259 179.679 26.2686 179.628 26.2878 179.58C26.3069 179.533 26.3353 179.49 26.3713 179.453C26.4065 179.416 26.449 179.385 26.4962 179.365C26.5433 179.344 26.5942 179.333 26.6457 179.332C26.6973 179.332 26.7483 179.342 26.7959 179.362C26.8435 179.381 26.8867 179.41 26.9227 179.447C32.1828 184.779 38.9967 202.615 37.7079 218.431C37.7017 218.533 37.6559 218.63 37.5801 218.699C37.5043 218.768 37.4045 218.806 37.3017 218.803Z" fill="white"/>
<path d="M35.5499 199.605L35.4368 199.606C31.7728 198.441 27.993 197.677 24.164 197.329C24.06 197.319 23.964 197.269 23.897 197.189C23.8299 197.109 23.7972 197.005 23.806 196.901C23.8089 196.85 23.8223 196.799 23.8452 196.753C23.8682 196.707 23.9003 196.666 23.9396 196.632C23.9789 196.599 24.0246 196.574 24.0739 196.558C24.1232 196.543 24.175 196.538 24.2264 196.543C28.1229 196.893 31.9694 197.668 35.6975 198.854C35.7467 198.87 35.7922 198.896 35.8311 198.93C35.87 198.964 35.9016 199.006 35.924 199.052C35.9463 199.099 35.9589 199.15 35.9609 199.201C35.963 199.253 35.9546 199.305 35.9361 199.353C35.906 199.43 35.8526 199.496 35.7833 199.541C35.7141 199.586 35.6324 199.608 35.5499 199.605Z" fill="white"/>
<path d="M308.414 214.182L301.252 210.179C301.252 210.179 299.345 194.956 300.379 183.145C301.836 166.543 312.335 146.472 325.159 151.024C337.983 155.576 319.527 172.662 315.533 186.774C311.54 200.886 308.414 214.182 308.414 214.182Z" fill="#322375"/>
<path opacity="0.15" d="M308.414 214.182L301.252 210.179C301.252 210.179 299.345 194.956 300.379 183.145C301.836 166.543 312.335 146.472 325.159 151.024C337.983 155.576 319.527 172.662 315.533 186.774C311.54 200.886 308.414 214.182 308.414 214.182Z" fill="black"/>
<path d="M304.656 212.497C304.771 212.49 304.879 212.439 304.956 212.353C305.033 212.268 305.074 212.155 305.069 212.04C303.427 175.208 321.575 156.471 321.757 156.292C321.835 156.208 321.878 156.098 321.877 155.983C321.876 155.869 321.831 155.759 321.751 155.677C321.711 155.637 321.663 155.605 321.611 155.583C321.558 155.562 321.502 155.551 321.445 155.552C321.389 155.552 321.333 155.564 321.281 155.587C321.229 155.61 321.182 155.642 321.143 155.683C320.954 155.869 302.539 174.871 304.2 212.085C304.202 212.142 304.216 212.198 304.24 212.25C304.264 212.302 304.299 212.348 304.341 212.387C304.384 212.425 304.434 212.455 304.488 212.474C304.542 212.493 304.599 212.501 304.656 212.497Z" fill="white"/>
<path d="M312.916 216.701L307.824 213.828C307.824 213.828 306.85 203.382 311.82 190.624C316.17 179.513 327.158 170.22 332.735 172.091C338.312 173.962 338.234 177.908 335.563 182.086C332.892 186.265 316.49 196.308 312.916 216.701Z" fill="#322375"/>
<path d="M310.233 215.613C310.289 215.612 310.344 215.6 310.396 215.578C310.448 215.556 310.495 215.523 310.534 215.483C310.573 215.442 310.603 215.394 310.624 215.342C310.644 215.289 310.654 215.233 310.652 215.177C310.306 191.849 332.019 175.902 332.236 175.737C332.282 175.704 332.322 175.662 332.351 175.614C332.381 175.566 332.402 175.512 332.411 175.457C332.42 175.401 332.418 175.343 332.405 175.288C332.393 175.233 332.369 175.181 332.336 175.135C332.303 175.089 332.261 175.05 332.213 175.02C332.165 174.99 332.112 174.97 332.056 174.96C332 174.951 331.943 174.953 331.887 174.966C331.832 174.979 331.78 175.002 331.734 175.035C331.509 175.193 309.439 191.441 309.79 215.186C309.793 215.301 309.841 215.41 309.924 215.49C310.007 215.57 310.117 215.614 310.233 215.613Z" fill="white"/>
<path d="M245.044 304.164C188.927 279.392 139.934 251.715 97.2645 220.889C92.8572 217.309 93.9642 213.691 97.8709 211.402C101.778 209.112 108.269 209.17 112.444 211.516L260.486 294.951C264.662 297.303 264.914 301.069 261.042 303.359C257.171 305.648 251.014 306.427 245.044 304.164Z" fill="#E0E0E0"/>
<path d="M170.229 278.282C190.289 278.069 206.452 268.506 206.329 256.922C206.206 245.338 189.844 236.12 169.784 236.332C149.724 236.545 133.561 246.108 133.684 257.692C133.807 269.276 150.168 278.495 170.229 278.282Z" fill="#E0E0E0"/>
<path d="M181.565 217.811L174.587 213.883C174.398 213.777 174.184 213.723 173.967 213.725C173.75 213.727 173.537 213.786 173.35 213.896L163.753 219.576C163.565 219.687 163.41 219.845 163.303 220.035C163.196 220.225 163.14 220.44 163.142 220.657L163.148 221.28C163.153 221.497 163.213 221.71 163.324 221.897C163.435 222.084 163.593 222.239 163.782 222.347L170.767 226.282C170.957 226.388 171.172 226.442 171.39 226.44C171.609 226.438 171.822 226.379 172.011 226.269L181.595 220.639C181.781 220.527 181.936 220.369 182.042 220.179C182.148 219.989 182.202 219.775 182.198 219.557L182.192 218.935C182.199 218.709 182.144 218.484 182.034 218.286C181.924 218.088 181.761 217.924 181.565 217.811Z" fill="#322375"/>
<path opacity="0.2" d="M181.565 217.811L174.587 213.883C174.398 213.777 174.184 213.723 173.967 213.725C173.75 213.727 173.537 213.786 173.35 213.896L163.753 219.576C163.565 219.687 163.41 219.845 163.303 220.035C163.196 220.225 163.14 220.44 163.142 220.657L163.148 221.28C163.153 221.497 163.213 221.71 163.324 221.897C163.435 222.084 163.593 222.239 163.782 222.347L170.767 226.282C170.957 226.388 171.172 226.442 171.39 226.44C171.609 226.438 171.822 226.379 172.011 226.269L181.595 220.639C181.781 220.527 181.936 220.369 182.042 220.179C182.148 219.989 182.202 219.775 182.198 219.557L182.192 218.935C182.199 218.709 182.144 218.484 182.034 218.286C181.924 218.088 181.761 217.924 181.565 217.811Z" fill="black"/>
<path d="M170.788 224.288C170.965 224.387 171.166 224.438 171.369 224.436C171.573 224.434 171.772 224.379 171.947 224.276L182.022 218.294C181.911 218.108 181.754 217.953 181.565 217.846L179.616 216.75L174.588 213.918C174.398 213.813 174.184 213.758 173.967 213.76C173.75 213.763 173.538 213.822 173.351 213.932L172.185 214.651L163.753 219.64C163.566 219.749 163.411 219.907 163.306 220.097L170.788 224.288Z" fill="#322375"/>
<path d="M167.868 208.256L174.556 211.607L182.904 199.428L172.985 194.146L167.868 208.256Z" fill="#FFA8A7"/>
<path d="M186.56 228.137C186.481 228.87 186.124 229.544 185.562 230.021C185.036 230.465 181.328 230.773 177.438 228.693C174.574 227.125 172.182 224.819 170.509 222.015C169.445 220.308 167.95 219.39 166.023 218.364C164.097 217.338 161.952 215.169 161.948 214.045C161.943 212.921 163.166 211.558 163.166 211.558L186.56 228.137Z" fill="#37474F"/>
<path d="M176.175 208.274L176.522 208.355C176.716 208.384 176.901 208.457 177.062 208.568C177.228 208.715 177.346 208.909 177.4 209.123C177.559 209.803 177.654 210.495 177.684 211.192C177.893 212.943 179.137 214.881 180.571 216.817C181.554 218.115 182.577 219.249 183.65 220.468C184.724 221.687 186.384 222.935 187.133 224.15C188.212 225.928 187.18 228.675 184.928 228.904C182.971 229.101 178.472 228.215 174.776 225.059C172.764 223.341 171.326 219.687 168.403 218.056C166.539 217.016 163.129 214.796 162.563 212.759C162.398 211.891 163.949 210.114 165.283 208.566C166.729 206.875 168.643 204.083 169.207 204.544C169.14 204.682 169.107 204.834 169.108 204.987C169.11 205.14 169.147 205.291 169.216 205.428C169.375 205.769 169.551 206.102 169.743 206.426C169.987 207.075 170.109 207.764 170.104 208.458C170.094 208.764 170.192 209.064 170.381 209.304C170.653 209.577 170.991 209.481 171.338 209.485C171.776 209.484 172.2 209.643 172.53 209.931C172.668 209.529 172.775 209.117 172.85 208.698C172.845 208.627 172.855 208.556 172.879 208.49C172.903 208.423 172.94 208.362 172.989 208.31C173.037 208.259 173.096 208.218 173.161 208.19C173.226 208.162 173.296 208.148 173.367 208.148C174.302 207.993 175.258 208.036 176.175 208.274Z" fill="#455A64"/>
<path d="M179.257 214.915C179.24 214.586 179.14 214.265 178.966 213.984C178.793 213.703 178.552 213.47 178.265 213.307C177.46 212.736 175.614 212.67 174.281 213.024C174.155 213.055 174.039 213.117 173.943 213.204C173.847 213.291 173.774 213.401 173.73 213.522C173.685 213.644 173.672 213.775 173.69 213.904C173.709 214.032 173.758 214.154 173.835 214.259C173.932 214.39 174.067 214.488 174.222 214.54C174.377 214.591 174.544 214.594 174.7 214.546C176.21 214.073 177.844 214.205 179.257 214.915Z" fill="#F5F5F5"/>
<path d="M181.281 217.694C181.214 217.336 181.062 216.999 180.837 216.712C180.612 216.425 180.322 216.197 179.991 216.046C179.991 216.046 177.661 215.052 175.632 215.724C175.512 215.758 175.402 215.82 175.311 215.905C175.22 215.99 175.15 216.096 175.108 216.213C175.066 216.33 175.052 216.456 175.068 216.579C175.084 216.703 175.129 216.821 175.199 216.924C175.293 217.05 175.425 217.145 175.574 217.194C175.724 217.243 175.886 217.244 176.036 217.198C176.892 216.881 177.807 216.762 178.715 216.847C179.623 216.933 180.5 217.223 181.281 217.694Z" fill="#F5F5F5"/>
<path d="M183.657 220.447C183.552 220.097 183.373 219.774 183.133 219.5C182.892 219.226 182.595 219.006 182.262 218.857C180.918 218.337 179.445 218.256 178.053 218.626C177.933 218.659 177.823 218.72 177.731 218.804C177.64 218.889 177.571 218.993 177.528 219.11C177.486 219.227 177.472 219.352 177.488 219.475C177.504 219.598 177.549 219.716 177.62 219.818C177.712 219.946 177.843 220.042 177.994 220.091C178.144 220.14 178.306 220.141 178.457 220.092C179.292 219.743 180.196 219.594 181.099 219.655C182.002 219.717 182.878 219.988 183.657 220.447Z" fill="#F5F5F5"/>
<path d="M187.403 141.61C187.403 141.61 198.954 160.804 202.486 167.865C205.606 174.096 206.622 177.168 198.299 185.775C189.977 194.383 179.478 205.064 179.478 205.064C179.478 205.064 174.079 205.305 172.465 200.423C175.109 193.112 179.975 179.896 187.011 176.675L173.23 159.259L187.403 141.61Z" fill="#263238"/>
<path d="M231.421 258.226C231.225 258.228 231.033 258.172 230.868 258.066C230.703 257.96 230.574 257.807 230.495 257.627L224.188 243.519C224.167 243.473 224.149 243.426 224.137 243.378L212.376 201.032C212.34 200.905 212.33 200.772 212.347 200.641C212.363 200.51 212.405 200.383 212.47 200.268C212.601 200.036 212.819 199.865 213.077 199.794C213.334 199.723 213.608 199.757 213.841 199.888C214.073 200.02 214.243 200.238 214.314 200.495L226.075 242.792L232.347 256.865C232.401 256.986 232.43 257.116 232.434 257.248C232.437 257.38 232.415 257.511 232.368 257.635C232.32 257.758 232.249 257.871 232.158 257.967C232.067 258.062 231.958 258.139 231.838 258.193C231.702 258.232 231.561 258.243 231.421 258.226Z" fill="#322375"/>
<path opacity="0.5" d="M231.421 258.226C231.225 258.228 231.033 258.172 230.868 258.066C230.703 257.96 230.574 257.807 230.495 257.627L224.188 243.519C224.167 243.473 224.149 243.426 224.137 243.378L212.376 201.032C212.34 200.905 212.33 200.772 212.347 200.641C212.363 200.51 212.405 200.383 212.47 200.268C212.601 200.036 212.819 199.865 213.077 199.794C213.334 199.723 213.608 199.757 213.841 199.888C214.073 200.02 214.243 200.238 214.314 200.495L226.075 242.792L232.347 256.865C232.401 256.986 232.43 257.116 232.434 257.248C232.437 257.38 232.415 257.511 232.368 257.635C232.32 257.758 232.249 257.871 232.158 257.967C232.067 258.062 231.958 258.139 231.838 258.193C231.702 258.232 231.561 258.243 231.421 258.226Z" fill="black"/>
<path d="M235.817 220.771L233.954 219.716C229.373 217.134 225.047 215.915 221.187 215.899L220.847 215.903C220.184 215.908 219.521 215.953 218.862 216.037C215.96 216.381 213.157 217.308 210.621 218.761C208.086 220.214 205.869 222.164 204.105 224.494C204.035 224.572 203.965 224.658 203.902 224.743C203.839 224.829 203.658 225.057 203.547 225.221L203.324 225.541C203.226 225.677 203.143 225.812 203.052 225.947C202.893 226.21 202.726 226.474 202.573 226.751L202.407 227.05C202.337 227.178 202.268 227.313 202.199 227.455L202.199 227.497C200.505 230.704 199.641 234.284 199.686 237.91L199.696 238.773C199.7 239.168 199.704 239.578 199.709 239.988L199.731 242.109C199.927 260.638 213.167 283.016 229.305 292.1L231.169 293.155C235.749 295.736 240.068 296.956 243.935 296.972L244.197 296.969C244.452 296.966 244.706 296.963 244.953 296.961L245.194 296.958C245.406 296.956 245.625 296.954 245.837 296.895L246.154 296.856C246.213 296.859 246.272 296.858 246.331 296.854C249.334 296.49 252.228 295.505 254.829 293.961C257.429 292.416 259.68 290.347 261.437 287.885C261.583 287.678 261.729 287.465 261.868 287.251L261.924 287.18C262.084 286.931 262.244 286.674 262.397 286.411C264.468 282.967 265.54 279.014 265.493 274.995L265.448 270.754C265.195 252.226 251.97 229.84 235.817 220.771ZM230.149 286.357C216.529 278.682 205.348 259.753 205.183 244.151C205.017 228.549 215.928 222.063 229.549 229.753C243.17 237.442 254.371 256.292 254.537 271.93C254.703 287.567 243.763 294.018 230.142 286.343L230.149 286.357Z" fill="#455A64"/>
<path d="M230.407 223.96L228.564 222.905C220.584 218.408 213.39 218.011 208.175 221C208.042 221.079 207.908 221.159 207.775 221.252L207.676 221.309L207.206 221.618C207.059 221.719 206.904 221.827 206.757 221.941C206.453 222.162 206.163 222.401 205.888 222.658L205.475 223.037C205.193 223.295 204.927 223.569 204.677 223.858C204.545 224.001 204.419 224.151 204.3 224.301C204.182 224.45 204.056 224.593 203.937 224.75C203.819 224.907 203.693 225.064 203.582 225.227L203.359 225.548C203.262 225.683 203.178 225.818 203.088 225.954C202.928 226.217 202.761 226.48 202.608 226.758L202.442 227.056C202.372 227.184 202.303 227.319 202.234 227.462L202.04 227.867C201.793 228.365 201.575 228.878 201.385 229.401C201.275 229.685 201.165 229.962 201.076 230.252C201.076 230.252 201.076 230.252 201.076 230.288C200.905 230.813 200.748 231.359 200.606 231.919C200.531 232.217 200.456 232.521 200.389 232.84C200.322 233.159 200.241 233.549 200.174 233.91C200.176 234.08 200.121 234.257 200.095 234.427C200.042 234.725 200.009 235.029 199.97 235.326C199.931 235.624 199.893 236.034 199.861 236.353L199.863 236.515C199.866 236.812 199.819 237.11 199.801 237.414L199.805 237.774C199.809 238.1 199.77 238.439 199.766 238.779C199.763 239.118 199.775 239.585 199.779 239.995L199.802 242.116C199.998 260.644 213.237 283.022 229.376 292.106L231.239 293.161C235.927 295.798 240.337 297.031 244.24 296.99C244.494 296.987 244.749 296.984 244.996 296.982L245.236 296.979C245.448 296.977 245.668 296.975 245.879 296.916L246.197 296.877C246.412 296.857 246.627 296.827 246.839 296.785C247.03 296.783 247.22 296.725 247.397 296.68L247.94 296.562C248.285 296.473 248.645 296.377 248.955 296.268L249.378 296.129C249.54 296.071 249.695 296.02 249.842 295.955C249.99 295.889 250.103 295.853 250.229 295.788C250.504 295.672 250.778 295.549 251.045 295.404C251.179 295.347 251.313 295.267 251.446 295.195L251.552 295.13C251.607 295.109 251.659 295.08 251.706 295.044L251.959 294.9C257.087 291.77 260.193 285.275 260.096 276.113L260.073 273.992C259.778 255.429 246.538 233.044 230.407 223.96ZM230.142 286.343C216.521 278.668 205.341 259.739 205.175 244.137C205.01 228.535 215.921 222.049 229.542 229.739C243.163 237.428 254.371 256.292 254.537 271.93C254.703 287.567 243.763 294.018 230.142 286.343Z" fill="#37474F"/>
<path d="M248.332 282.148C244.506 286.806 237.783 287.535 230.109 283.204C218.017 276.382 208.061 259.59 207.914 245.685C207.848 239.478 209.751 234.898 212.955 232.332C210.728 235.022 209.49 239.008 209.544 244.098C209.692 257.996 219.634 274.796 231.739 281.617C238.418 285.386 244.37 285.315 248.332 282.148Z" fill="#322375"/>
<path opacity="0.2" d="M248.332 282.148C244.506 286.806 237.783 287.535 230.109 283.204C218.017 276.382 208.061 259.59 207.914 245.685C207.848 239.478 209.751 234.898 212.955 232.332C210.728 235.022 209.49 239.008 209.544 244.098C209.692 257.996 219.634 274.796 231.739 281.617C238.418 285.386 244.37 285.315 248.332 282.148Z" fill="black"/>
<path d="M229.542 229.724C215.914 222.049 205.009 228.507 205.175 244.123C205.341 259.739 216.514 278.647 230.142 286.329C243.77 294.011 254.674 287.554 254.508 271.93C254.343 256.307 243.162 237.4 229.542 229.724ZM230.109 283.197C218.017 276.375 208.061 259.583 207.914 245.685C207.766 231.786 217.462 226.049 229.575 232.87C241.688 239.692 251.616 256.484 251.763 270.383C251.91 284.281 242.214 289.99 230.109 283.197Z" fill="#322375"/>
<path d="M250.955 263.477C250.903 263.237 250.85 262.99 250.792 262.771L231.763 257.854L248.714 256.162L248.452 255.514L231.325 257.23L245.195 249.023C245.087 248.833 244.964 248.643 244.849 248.447L230.987 256.654L240.686 242.538L240.242 241.998L230.633 255.964L235.467 237.114C235.282 236.946 235.096 236.778 234.903 236.618L230.151 255.156L229.917 233.072L229.582 232.87L229.241 232.69L229.471 254.4L224.348 230.649L223.639 230.459L228.688 253.892L219.138 230.026C218.904 230.028 218.672 230.066 218.431 230.09L227.923 253.787L214.584 231.269C214.387 231.377 214.19 231.485 214 231.6L227.326 254.133L211.045 234.304C210.906 234.489 210.774 234.682 210.641 234.874L227.051 254.85L208.762 238.973C208.694 239.207 208.625 239.448 208.564 239.682L227.117 255.79L207.913 244.978C207.916 245.211 207.918 245.437 207.921 245.685L207.921 245.748L227.46 256.755L208.595 251.914C208.64 252.153 208.692 252.4 208.744 252.619L227.928 257.541L210.744 259.265C210.824 259.483 210.912 259.694 210.999 259.913L228.366 258.173L214.229 266.538L214.561 267.122L228.704 258.749L218.775 273.207L219.212 273.747L229.051 259.438L224.067 278.871L224.638 279.367L229.527 260.296L229.768 283.031L230.109 283.232L230.443 283.413L230.206 261.024L235.478 285.459L236.187 285.643L230.982 261.525L240.786 286.018C241.02 286.016 241.252 285.978 241.493 285.947L231.803 261.629L245.417 284.64C245.607 284.532 245.796 284.417 245.986 284.287L232.379 261.291L248.882 281.436C249.015 281.25 249.147 281.058 249.272 280.859L232.619 260.588L251.051 276.577C251.119 276.336 251.173 276.095 251.227 275.868L232.56 259.628L251.764 270.446L251.763 270.383C251.761 270.149 251.758 269.909 251.756 269.676L232.238 258.676L250.955 263.477Z" fill="#EBEBEB"/>
<path d="M230.993 247.872C228.66 246.554 226.573 246.505 225.092 247.447C224.79 247.641 224.389 247.815 224.023 248.052C223.911 248.117 223.813 248.189 223.707 248.261L223.651 248.297C223.512 248.401 223.378 248.513 223.252 248.633L223.168 248.719C223.056 248.833 222.951 248.954 222.847 249.083L222.742 249.225C222.65 249.346 222.567 249.472 222.492 249.603L222.374 249.823C222.311 249.951 222.249 250.072 222.194 250.207C222.148 250.306 222.109 250.408 222.077 250.512C222.029 250.633 221.988 250.753 221.947 250.888C221.906 251.023 221.879 251.15 221.845 251.292C221.811 251.434 221.791 251.519 221.771 251.647C221.751 251.774 221.718 252.001 221.699 252.178L221.659 252.482C221.663 252.772 221.623 253.076 221.627 253.387C221.682 258.597 225.411 264.9 229.956 267.439C230.24 267.599 230.517 267.737 230.795 267.862C230.958 267.938 231.121 267.993 231.284 268.055C231.448 268.116 231.505 268.144 231.618 268.178C231.725 268.213 231.834 268.243 231.944 268.267C232.098 268.316 232.254 268.356 232.412 268.389L232.596 268.387C232.79 268.423 232.986 268.449 233.184 268.466L233.219 268.465C234.153 268.542 235.087 268.311 235.877 267.808C236.271 267.57 236.622 267.397 237.065 267.124C238.47 266.246 239.362 264.427 239.335 261.868C239.267 256.728 235.538 250.468 230.993 247.872ZM228.826 263.598C227.401 262.524 225.415 259.237 224.624 257.4C225.083 257.712 225.558 258 226.048 258.261C228.18 259.335 228.115 257.851 228.988 258.874C229.862 259.896 229.733 262.401 229.04 263.751C228.962 263.71 228.89 263.658 228.826 263.598ZM232.866 253.876C232.747 253.918 232.631 253.971 232.522 254.035C232.297 254.165 231.376 254.698 231.278 254.756C231.014 254.901 230.798 255.119 230.655 255.384C229.59 254.321 228.331 250.912 228.413 249.3C230.251 249.909 233.325 252.415 233.802 253.393C233.84 253.466 233.869 253.544 233.889 253.625C233.54 253.674 233.198 253.758 232.866 253.876ZM226.655 252.86C227.388 255.32 228.403 255.67 228.482 256.496C226.868 256.252 224.221 254.717 224.049 253.171C223.982 251.662 224.47 250.18 225.419 249.006C226.101 249.303 226.075 250.844 226.655 252.86ZM231.409 265.77C230.552 265.001 231.491 264.227 231.906 262.618C232.117 261.851 232.108 261.04 231.881 260.278C233.57 261.575 236.117 265.02 235.477 266.052L235.4 266.158C233.976 266.541 232.015 266.315 231.409 265.77ZM235.325 260.369C233.518 258.012 232.827 258.84 232.382 257.572C232.298 257.263 232.306 256.937 232.406 256.633C232.506 256.329 232.693 256.061 232.944 255.862C233.405 255.678 233.916 255.662 234.388 255.816C234.86 255.969 235.262 256.284 235.526 256.704C236.412 258.236 236.923 261.038 237.005 262.783C236.574 262.137 236.041 261.245 235.325 260.369Z" fill="#E0E0E0"/>
<path opacity="0.2" d="M230.993 247.872C228.66 246.554 226.573 246.505 225.092 247.447C224.79 247.641 224.389 247.815 224.023 248.052C223.911 248.117 223.813 248.189 223.707 248.261L223.651 248.297C223.512 248.401 223.378 248.513 223.252 248.633L223.168 248.719C223.056 248.833 222.951 248.954 222.847 249.083L222.742 249.225C222.65 249.346 222.567 249.472 222.492 249.603L222.374 249.823C222.311 249.951 222.249 250.072 222.194 250.207C222.148 250.306 222.109 250.408 222.077 250.512C222.029 250.633 221.988 250.753 221.947 250.888C221.906 251.023 221.879 251.15 221.845 251.292C221.811 251.434 221.791 251.519 221.771 251.647C221.751 251.774 221.718 252.001 221.699 252.178L221.659 252.482C221.663 252.772 221.623 253.076 221.627 253.387C221.682 258.597 225.411 264.9 229.956 267.439C230.24 267.599 230.517 267.737 230.795 267.862C230.958 267.938 231.121 267.993 231.284 268.055C231.448 268.116 231.505 268.144 231.618 268.178C231.725 268.213 231.834 268.243 231.944 268.267C232.098 268.316 232.254 268.356 232.412 268.389L232.596 268.387C232.79 268.423 232.986 268.449 233.184 268.466L233.219 268.465C234.153 268.542 235.087 268.311 235.877 267.808C236.271 267.57 236.622 267.397 237.065 267.124C238.47 266.246 239.362 264.427 239.335 261.868C239.267 256.728 235.538 250.468 230.993 247.872ZM228.826 263.598C227.401 262.524 225.415 259.237 224.624 257.4C225.083 257.712 225.558 258 226.048 258.261C228.18 259.335 228.115 257.851 228.988 258.874C229.862 259.896 229.733 262.401 229.04 263.751C228.962 263.71 228.89 263.658 228.826 263.598ZM232.866 253.876C232.747 253.918 232.631 253.971 232.522 254.035C232.297 254.165 231.376 254.698 231.278 254.756C231.014 254.901 230.798 255.119 230.655 255.384C229.59 254.321 228.331 250.912 228.413 249.3C230.251 249.909 233.325 252.415 233.802 253.393C233.84 253.466 233.869 253.544 233.889 253.625C233.54 253.674 233.198 253.758 232.866 253.876ZM226.655 252.86C227.388 255.32 228.403 255.67 228.482 256.496C226.868 256.252 224.221 254.717 224.049 253.171C223.982 251.662 224.47 250.18 225.419 249.006C226.101 249.303 226.075 250.844 226.655 252.86ZM231.409 265.77C230.552 265.001 231.491 264.227 231.906 262.618C232.117 261.851 232.108 261.04 231.881 260.278C233.57 261.575 236.117 265.02 235.477 266.052L235.4 266.158C233.976 266.541 232.015 266.315 231.409 265.77ZM235.325 260.369C233.518 258.012 232.827 258.84 232.382 257.572C232.298 257.263 232.306 256.937 232.406 256.633C232.506 256.329 232.693 256.061 232.944 255.862C233.405 255.678 233.916 255.662 234.388 255.816C234.86 255.969 235.262 256.284 235.526 256.704C236.412 258.236 236.923 261.038 237.005 262.783C236.574 262.137 236.041 261.245 235.325 260.369Z" fill="black"/>
<path d="M229.742 248.593C225.197 246.039 221.558 248.192 221.613 253.402C221.668 258.612 225.397 264.914 229.942 267.454C234.487 269.993 238.112 267.855 238.057 262.645C238.002 257.435 234.28 251.189 229.742 248.593ZM227.719 249.173C229.338 249.155 233.253 252.288 233.802 253.4C234.351 254.511 232.926 254.116 231.63 254.596C229.982 255.201 230.783 256.79 229.804 256.404C228.376 255.826 226.114 249.154 227.719 249.173ZM225.306 248.951C226.141 249.083 226.031 250.711 226.676 252.86C227.462 255.581 228.651 255.745 228.492 256.765C228.261 258.259 223.098 256.115 222.806 253.884C222.513 251.653 224.449 248.811 225.306 248.951ZM227.59 264.318C225.808 262.966 223.076 258.067 223.044 257.035C223.012 256.003 224.391 257.409 226.069 258.261C228.201 259.334 228.136 257.85 229.01 258.873C230.298 260.366 229.365 265.678 227.59 264.318ZM235.456 266.024C234.629 267.376 231.028 267.23 230.165 266.461C229.301 265.693 230.247 264.926 230.669 263.303C231.198 261.254 229.971 260.164 230.673 259.768C231.693 259.241 236.29 264.7 235.456 266.024ZM234.102 261.089C232.303 258.746 231.605 259.56 231.167 258.292C230.511 256.446 234.28 254.512 235.548 256.704C236.815 258.897 237.319 263.706 236.823 264.263C236.327 264.819 235.529 262.919 234.102 261.089Z" fill="#E0E0E0"/>
<path d="M229.873 260.922C231.295 261.705 232.37 261.044 232.353 259.481C232.298 258.614 232.039 257.772 231.597 257.024C231.156 256.276 230.544 255.642 229.812 255.174C228.389 254.39 227.308 255.052 227.324 256.615C227.38 257.482 227.64 258.325 228.082 259.073C228.525 259.822 229.139 260.455 229.873 260.922Z" fill="#455A64"/>
<path d="M128.922 160.556L127.058 159.501C122.477 156.92 118.159 155.7 114.291 155.684L113.952 155.688C113.29 155.693 112.63 155.738 111.974 155.822C109.072 156.165 106.269 157.091 103.733 158.543C101.198 159.994 98.9809 161.943 97.2159 164.272L97.0136 164.529C96.888 164.685 96.7695 164.842 96.6581 165.006L96.4352 165.327C96.3377 165.462 96.2543 165.597 96.1638 165.732C96.004 165.996 95.8371 166.259 95.6845 166.536L95.518 166.835L95.3102 167.24L95.3106 167.283C93.6157 170.489 92.7518 174.069 92.798 177.695L92.8071 178.558C92.8113 178.954 92.8156 179.364 92.82 179.774L92.8425 181.895C93.0388 200.416 106.278 222.801 122.417 231.885L124.28 232.94C128.861 235.522 133.179 236.741 137.047 236.757L137.316 236.754L138.065 236.746L138.305 236.744C138.517 236.741 138.736 236.739 138.948 236.68L139.266 236.642C139.325 236.645 139.384 236.644 139.442 236.64C142.445 236.276 145.339 235.29 147.94 233.746C150.541 232.202 152.791 230.132 154.548 227.67L154.987 227.036L155.036 226.958C155.196 226.716 155.356 226.46 155.515 226.196C157.581 222.75 158.65 218.798 158.604 214.781L158.559 210.539C158.321 192.025 145.081 169.64 128.922 160.556ZM123.254 226.142C109.633 218.467 98.4523 199.539 98.2869 183.937C98.1215 168.335 109.033 161.849 122.654 169.538C136.274 177.227 147.455 196.106 147.62 211.744C147.786 227.381 136.889 233.839 123.254 226.142Z" fill="#455A64"/>
<path d="M123.533 163.76L121.669 162.705C113.689 158.208 106.494 157.81 101.28 160.8C101.146 160.879 101.013 160.958 100.879 161.051L100.781 161.109L100.311 161.418C100.163 161.519 100.009 161.626 99.8615 161.741C99.559 161.964 99.2688 162.203 98.9924 162.457L98.5793 162.836C98.2976 163.094 98.0314 163.369 97.782 163.658C97.6492 163.801 97.5235 163.95 97.4049 164.1C97.2863 164.25 97.1606 164.393 97.042 164.549C96.9235 164.706 96.7979 164.863 96.6865 165.027L96.4637 165.347C96.3661 165.483 96.2827 165.618 96.1922 165.753C96.0324 166.017 95.8655 166.28 95.7129 166.557L95.5464 166.856L95.3386 167.261L95.1448 167.659C94.8872 168.16 94.6566 168.675 94.4542 169.201C94.3441 169.485 94.2339 169.762 94.145 170.052C93.9739 170.577 93.817 171.124 93.6744 171.677C93.5999 171.981 93.5253 172.286 93.4579 172.598C93.3905 172.91 93.3099 173.307 93.2431 173.675C93.2449 173.845 93.1902 174.022 93.1638 174.192C93.1103 174.489 93.0782 174.794 93.0389 175.091C92.9997 175.388 92.9612 175.764 92.9296 176.117L92.9314 176.28C92.9345 176.577 92.8882 176.874 92.8701 177.172L92.874 177.539C92.8774 177.864 92.8386 178.204 92.8352 178.543C92.8317 178.883 92.8437 179.349 92.8481 179.759L92.8705 181.88C93.0669 200.402 106.306 222.787 122.445 231.871L124.308 232.926C128.995 235.563 133.406 236.789 137.315 236.747L138.065 236.739L138.305 236.737C138.517 236.734 138.736 236.732 138.948 236.673L139.266 236.635C139.485 236.632 139.696 236.581 139.908 236.543L140.465 236.438L141.009 236.319C141.354 236.231 141.714 236.135 142.024 236.026L142.446 235.887C142.608 235.828 142.763 235.777 142.911 235.712C143.043 235.664 143.172 235.608 143.298 235.545C143.573 235.429 143.847 235.306 144.114 235.162C144.248 235.104 144.381 235.025 144.515 234.953L144.62 234.888C144.676 234.866 144.728 234.837 144.775 234.802L145.028 234.657C150.156 231.528 153.262 225.033 153.165 215.871L153.142 213.75C152.903 195.222 139.657 172.843 123.533 163.76ZM123.254 226.143C109.633 218.467 98.4523 199.539 98.2869 183.937C98.1215 168.335 109.033 161.849 122.654 169.538C136.274 177.227 147.454 196.106 147.62 211.744C147.786 227.381 136.889 233.839 123.254 226.143Z" fill="#37474F"/>
<path d="M141.457 221.941C137.632 226.591 130.909 227.32 123.234 222.996C111.143 216.175 101.187 199.383 101.039 185.477C100.973 179.27 102.876 174.69 106.08 172.125C103.853 174.814 102.616 178.8 102.67 183.89C102.817 197.789 112.759 214.581 124.865 221.41C131.53 225.185 137.496 225.115 141.457 221.941Z" fill="#322375"/>
<path opacity="0.2" d="M141.457 221.941C137.632 226.591 130.909 227.32 123.234 222.996C111.143 216.175 101.187 199.383 101.039 185.477C100.973 179.27 102.876 174.69 106.08 172.125C103.853 174.814 102.616 178.8 102.67 183.89C102.817 197.789 112.759 214.581 124.865 221.41C131.53 225.185 137.496 225.115 141.457 221.941Z" fill="black"/>
<path d="M122.653 169.524C109.026 161.849 98.1212 168.299 98.2868 183.923C98.4525 199.546 109.626 218.446 123.254 226.128C136.881 233.811 147.786 227.346 147.62 211.73C147.455 196.114 136.288 177.199 122.653 169.524ZM123.22 222.997C111.129 216.175 101.173 199.383 101.025 185.484C100.878 171.586 110.595 165.848 122.687 172.67C134.778 179.492 144.727 196.284 144.875 210.182C145.022 224.081 135.312 229.818 123.22 222.997Z" fill="#322375"/>
<path d="M144.08 203.276C144.028 203.029 143.976 202.789 143.917 202.571L124.882 197.682L141.832 195.989C141.745 195.771 141.665 195.56 141.571 195.342L124.451 197.05L138.313 188.85C138.205 188.661 138.083 188.471 137.968 188.274L124.106 196.474L133.805 182.365L133.361 181.826L123.759 195.799L128.593 176.948C128.408 176.781 128.222 176.613 128.029 176.452L123.277 194.991L123.042 172.871L122.708 172.67L122.367 172.489L122.597 194.199L117.474 170.449C117.232 170.373 116.991 170.312 116.765 170.258L121.792 193.699L112.242 169.832C112.009 169.835 111.776 169.837 111.536 169.896L121.021 193.594L107.695 171.111C107.499 171.219 107.302 171.327 107.112 171.442L120.438 193.968L104.171 174.089C104.031 174.275 103.899 174.467 103.767 174.659L120.176 194.635L101.887 178.759C101.819 178.993 101.751 179.234 101.69 179.468L120.243 195.575L101.039 184.763C101.041 184.996 101.044 185.223 101.046 185.47L101.047 185.534L120.578 196.54L101.713 191.699C101.758 191.939 101.81 192.186 101.862 192.404L121.046 197.327L103.877 199.085C103.957 199.304 104.044 199.515 104.132 199.733L121.499 197.994L107.348 206.359L107.679 206.942L121.823 198.57L111.894 213.028L112.331 213.567L122.17 199.259L117.193 218.635L117.763 219.131L122.652 200.06L122.893 222.795L123.234 222.996L123.568 223.177L123.331 200.816L128.603 225.259L129.312 225.442L124.107 201.324L133.912 225.817C134.145 225.815 134.378 225.777 134.618 225.746L124.893 201.443L138.507 224.454C138.697 224.346 138.886 224.223 139.076 224.101L125.47 201.105L142.008 221.235C142.14 221.05 142.273 220.857 142.398 220.658L125.745 200.374L144.184 216.376C144.252 216.135 144.306 215.894 144.36 215.667L125.685 199.455L144.89 210.274L144.889 210.21C144.886 209.977 144.884 209.737 144.881 209.503L125.35 198.469L144.08 203.276Z" fill="#EBEBEB"/>
<path d="M124.119 187.672C121.786 186.353 119.699 186.305 118.217 187.239C117.916 187.441 117.514 187.614 117.149 187.852C117.037 187.916 116.939 187.988 116.833 188.06L116.777 188.096C116.638 188.2 116.504 188.313 116.378 188.432L116.294 188.518C116.182 188.633 116.077 188.747 115.972 188.875L115.868 189.025C115.776 189.145 115.693 189.271 115.617 189.402L115.5 189.623C115.437 189.75 115.375 189.871 115.32 190.006C115.272 190.104 115.233 190.207 115.203 190.311C115.155 190.432 115.113 190.553 115.072 190.688C115.031 190.822 115.005 190.95 114.978 191.092C114.951 191.233 114.917 191.318 114.897 191.446C114.877 191.573 114.844 191.8 114.825 191.977L114.785 192.281C114.788 192.571 114.749 192.876 114.753 193.187C114.808 198.397 118.537 204.699 123.082 207.239C123.366 207.398 123.643 207.537 123.92 207.661C124.08 207.732 124.244 207.794 124.41 207.847C124.519 207.896 124.63 207.94 124.744 207.978C124.853 208.014 124.964 208.043 125.077 208.066C125.228 208.116 125.382 208.157 125.538 208.188L125.722 208.186C125.916 208.223 126.112 208.249 126.309 208.265L126.345 208.265C127.278 208.348 128.213 208.119 129.003 207.614C129.397 207.377 129.748 207.203 130.191 206.93C131.596 206.053 132.488 204.233 132.461 201.674C132.393 196.528 128.664 190.232 124.119 187.672ZM121.952 203.397C120.527 202.324 118.54 199.036 117.75 197.199C118.209 197.511 118.684 197.799 119.174 198.061C121.306 199.134 121.241 197.65 122.114 198.673C122.988 199.696 122.859 202.2 122.166 203.551C122.089 203.507 122.018 203.456 121.952 203.397ZM125.992 193.654C125.872 193.696 125.757 193.75 125.647 193.814C125.422 193.943 124.502 194.476 124.403 194.534C124.14 194.679 123.923 194.897 123.781 195.163C122.716 194.099 121.464 190.691 121.539 189.078C123.376 189.687 126.45 192.193 126.927 193.171C126.965 193.245 126.995 193.323 127.014 193.403C126.666 193.453 126.324 193.537 125.992 193.654ZM119.781 192.639C120.514 195.098 121.528 195.448 121.608 196.274C119.993 196.03 117.347 194.495 117.175 192.949C117.108 191.44 117.595 189.959 118.545 188.784C119.227 189.095 119.201 190.644 119.781 192.66L119.781 192.639ZM124.534 205.548C123.678 204.779 124.617 204.006 125.031 202.396C125.241 201.627 125.232 200.814 125.006 200.049C126.696 201.353 129.242 204.798 128.603 205.83L128.526 205.937C127.102 206.369 125.162 206.114 124.535 205.569L124.534 205.548ZM128.472 200.133C126.672 197.776 125.974 198.604 125.529 197.336C125.445 197.027 125.453 196.7 125.553 196.397C125.653 196.093 125.84 195.825 126.091 195.626C126.552 195.442 127.062 195.425 127.534 195.579C128.006 195.733 128.409 196.048 128.673 196.468C129.559 198 130.069 200.802 130.152 202.547C129.7 201.937 129.16 201.044 128.472 200.154L128.472 200.133Z" fill="#E0E0E0"/>
<path opacity="0.2" d="M124.119 187.672C121.786 186.353 119.699 186.305 118.217 187.239C117.916 187.441 117.514 187.614 117.149 187.852C117.037 187.916 116.939 187.988 116.833 188.06L116.777 188.096C116.638 188.2 116.504 188.313 116.378 188.432L116.294 188.518C116.182 188.633 116.077 188.747 115.972 188.875L115.868 189.025C115.776 189.145 115.693 189.271 115.617 189.402L115.5 189.623C115.437 189.75 115.375 189.871 115.32 190.006C115.272 190.104 115.233 190.207 115.203 190.311C115.155 190.432 115.113 190.553 115.072 190.688C115.031 190.822 115.005 190.95 114.978 191.092C114.951 191.233 114.917 191.318 114.897 191.446C114.877 191.573 114.844 191.8 114.825 191.977L114.785 192.281C114.788 192.571 114.749 192.876 114.753 193.187C114.808 198.397 118.537 204.699 123.082 207.239C123.366 207.398 123.643 207.537 123.92 207.661C124.08 207.732 124.244 207.794 124.41 207.847C124.519 207.896 124.63 207.94 124.744 207.978C124.853 208.014 124.964 208.043 125.077 208.066C125.228 208.116 125.382 208.157 125.538 208.188L125.722 208.186C125.916 208.223 126.112 208.249 126.309 208.265L126.345 208.265C127.278 208.348 128.213 208.119 129.003 207.614C129.397 207.377 129.748 207.203 130.191 206.93C131.596 206.053 132.488 204.233 132.461 201.674C132.393 196.528 128.664 190.232 124.119 187.672ZM121.952 203.397C120.527 202.324 118.54 199.036 117.75 197.199C118.209 197.511 118.684 197.799 119.174 198.061C121.306 199.134 121.241 197.65 122.114 198.673C122.988 199.696 122.859 202.2 122.166 203.551C122.089 203.507 122.018 203.456 121.952 203.397ZM125.992 193.654C125.872 193.696 125.757 193.75 125.647 193.814C125.422 193.943 124.502 194.476 124.403 194.534C124.14 194.679 123.923 194.897 123.781 195.163C122.716 194.099 121.464 190.691 121.539 189.078C123.376 189.687 126.45 192.193 126.927 193.171C126.965 193.245 126.995 193.323 127.014 193.403C126.666 193.453 126.324 193.537 125.992 193.654ZM119.781 192.639C120.514 195.098 121.528 195.448 121.608 196.274C119.993 196.03 117.347 194.495 117.175 192.949C117.108 191.44 117.595 189.959 118.545 188.784C119.227 189.095 119.201 190.644 119.781 192.66L119.781 192.639ZM124.534 205.548C123.678 204.779 124.617 204.006 125.031 202.396C125.241 201.627 125.232 200.814 125.006 200.049C126.696 201.353 129.242 204.798 128.603 205.83L128.526 205.937C127.102 206.369 125.162 206.114 124.535 205.569L124.534 205.548ZM128.472 200.133C126.672 197.776 125.974 198.604 125.529 197.336C125.445 197.027 125.453 196.7 125.553 196.397C125.653 196.093 125.84 195.825 126.091 195.626C126.552 195.442 127.062 195.425 127.534 195.579C128.006 195.733 128.409 196.048 128.673 196.468C129.559 198 130.069 200.802 130.152 202.547C129.7 201.937 129.16 201.044 128.472 200.154L128.472 200.133Z" fill="black"/>
<path d="M122.854 188.392C118.309 185.838 114.669 187.991 114.724 193.201C114.78 198.411 118.509 204.714 123.053 207.253C127.598 209.793 131.224 207.654 131.169 202.444C131.113 197.234 127.406 190.953 122.854 188.392ZM120.831 188.972C122.449 188.955 126.364 192.088 126.913 193.199C127.462 194.31 126.037 193.916 124.741 194.396C123.093 195 123.895 196.59 122.915 196.197C121.516 195.625 119.24 188.961 120.845 188.972L120.831 188.972ZM118.396 188.75C119.232 188.883 119.122 190.51 119.767 192.66C120.552 195.381 121.742 195.545 121.583 196.565C121.351 198.059 116.188 195.879 115.896 193.684C115.604 191.488 117.574 188.611 118.411 188.786L118.396 188.75ZM120.68 204.118C118.898 202.765 116.167 197.866 116.134 196.834C116.102 195.803 117.482 197.209 119.159 198.061C121.292 199.134 121.227 197.65 122.1 198.673C123.424 200.165 122.49 205.477 120.708 204.118L120.68 204.118ZM128.553 205.852C127.726 207.204 124.126 207.058 123.262 206.289C122.399 205.521 123.345 204.754 123.766 203.131C124.296 201.082 123.068 199.992 123.771 199.596C124.819 199.04 129.387 204.499 128.582 205.851L128.553 205.852ZM127.228 200.867C125.428 198.518 124.73 199.338 124.292 198.07C123.637 196.225 127.406 194.29 128.673 196.482C129.941 198.675 130.444 203.484 129.948 204.041C129.452 204.598 128.662 202.718 127.228 200.867Z" fill="#E0E0E0"/>
<path d="M122.984 200.756C124.371 201.541 125.482 200.878 125.465 199.316C125.41 198.449 125.151 197.607 124.709 196.859C124.268 196.11 123.656 195.477 122.924 195.009C121.501 194.225 120.419 194.887 120.436 196.449C120.492 197.317 120.751 198.16 121.194 198.908C121.637 199.657 122.251 200.29 122.984 200.756Z" fill="#455A64"/>
<path d="M214.183 200.143C214.103 200.038 214.002 199.949 213.887 199.882C213.772 199.816 213.645 199.773 213.513 199.756C213.382 199.739 213.248 199.748 213.12 199.783C212.992 199.818 212.872 199.879 212.767 199.96L210.214 201.91L209.735 200.049L167.383 232.589C167.383 232.589 166.568 233.036 166.519 233.086L123.624 197.052C123.523 196.967 123.406 196.903 123.28 196.863C123.154 196.824 123.022 196.809 122.89 196.821C122.759 196.833 122.631 196.87 122.514 196.931C122.396 196.992 122.293 197.075 122.208 197.177C122.123 197.278 122.059 197.395 122.019 197.521C121.98 197.646 121.965 197.779 121.977 197.91C121.988 198.042 122.026 198.17 122.087 198.287C122.148 198.404 122.231 198.508 122.332 198.593L166.797 235.947C166.904 236.033 167.018 236.11 167.138 236.176C167.409 236.337 167.717 236.421 168.032 236.422C168.47 236.402 168.889 236.236 169.222 235.949L210.725 204.068L213.958 201.595C214.071 201.517 214.167 201.417 214.24 201.3C214.314 201.184 214.362 201.053 214.383 200.917C214.404 200.782 214.397 200.643 214.363 200.51C214.329 200.377 214.267 200.252 214.183 200.143Z" fill="#322375"/>
<path d="M174.818 212.997C170.702 213.023 166.595 212.592 162.573 211.713L162.474 211.714L122.638 198.78C122.433 198.714 122.254 198.583 122.129 198.407C122.003 198.231 121.938 198.019 121.943 197.803C121.948 197.586 122.023 197.378 122.156 197.207C122.289 197.037 122.473 196.914 122.682 196.857L157.992 187.044C158.528 186.89 159.064 188.835 158.529 188.983L126.44 197.892L163.04 209.756C175.172 212.357 186.743 210.785 194.81 205.439C201.782 200.819 206.272 193.489 208.147 183.642C208.172 183.512 208.222 183.388 208.295 183.278C208.367 183.167 208.461 183.072 208.571 182.998C208.68 182.924 208.804 182.872 208.933 182.846C209.063 182.82 209.196 182.819 209.326 182.845C209.456 182.868 209.58 182.918 209.69 182.99C209.8 183.062 209.895 183.155 209.97 183.264C210.044 183.373 210.096 183.496 210.122 183.625C210.148 183.754 210.149 183.887 210.123 184.017C208.113 194.417 203.366 202.188 195.924 207.117C190.209 210.911 182.856 212.912 174.818 212.997Z" fill="#322375"/>
<path d="M167.614 236.341C167.381 236.344 167.154 236.266 166.973 236.119C166.792 235.972 166.668 235.767 166.623 235.539L149.315 150.201C149.284 149.949 149.349 149.693 149.497 149.486C149.646 149.279 149.867 149.136 150.117 149.085C150.366 149.034 150.626 149.08 150.843 149.212C151.061 149.344 151.221 149.554 151.291 149.799L168.598 235.1C168.625 235.23 168.626 235.364 168.601 235.494C168.576 235.624 168.525 235.748 168.452 235.859C168.379 235.969 168.285 236.064 168.175 236.138C168.065 236.212 167.941 236.264 167.811 236.29C167.748 236.314 167.682 236.332 167.614 236.341Z" fill="#322375"/>
<path d="M192.025 218.117C191.819 218.119 191.617 218.058 191.446 217.943C191.276 217.827 191.144 217.662 191.07 217.47L188.111 209.724C188.017 209.474 188.026 209.196 188.136 208.953C188.246 208.709 188.448 208.519 188.698 208.424C188.821 208.376 188.952 208.354 189.084 208.357C189.215 208.361 189.345 208.39 189.465 208.444C189.586 208.498 189.694 208.575 189.784 208.671C189.874 208.768 189.945 208.881 189.991 209.004L192.951 216.75C193.008 216.901 193.027 217.064 193.008 217.225C192.99 217.385 192.932 217.539 192.842 217.673C192.751 217.807 192.629 217.917 192.487 217.995C192.345 218.072 192.186 218.114 192.025 218.117Z" fill="#322375"/>
<path d="M229.855 259.232C229.711 259.233 229.569 259.204 229.438 259.145C229.307 259.087 229.19 259.001 229.094 258.894L219.121 247.814C219.018 247.7 218.944 247.563 218.905 247.414L207.144 205.068C207.108 204.941 207.099 204.808 207.115 204.677C207.131 204.545 207.173 204.419 207.238 204.304C207.369 204.072 207.588 203.901 207.845 203.83C208.102 203.759 208.377 203.793 208.609 203.924C208.841 204.056 209.011 204.274 209.082 204.531L220.777 246.644L230.593 257.563C230.722 257.707 230.807 257.886 230.837 258.077C230.867 258.268 230.842 258.464 230.764 258.641C230.687 258.819 230.56 258.97 230.398 259.077C230.237 259.184 230.048 259.243 229.855 259.246L229.855 259.232Z" fill="#322375"/>
<path d="M209.151 203.01L206.466 171.16C206.402 170.453 209.079 170.199 209.143 170.933L211.828 202.784C211.886 203.526 209.215 203.717 209.151 203.01Z" fill="#322375"/>
<g opacity="0.4">
<path opacity="0.4" d="M214.183 200.143C214.103 200.038 214.002 199.949 213.887 199.882C213.772 199.816 213.645 199.773 213.513 199.756C213.382 199.739 213.248 199.748 213.12 199.783C212.992 199.818 212.872 199.879 212.767 199.96L210.214 201.91L209.735 200.049L167.383 232.589C167.383 232.589 166.568 233.036 166.519 233.086L123.624 197.052C123.523 196.967 123.406 196.903 123.28 196.863C123.154 196.824 123.022 196.809 122.89 196.821C122.759 196.833 122.631 196.87 122.514 196.931C122.396 196.992 122.293 197.075 122.208 197.177C122.123 197.278 122.059 197.395 122.019 197.521C121.98 197.646 121.965 197.779 121.977 197.91C121.988 198.042 122.026 198.17 122.087 198.287C122.148 198.404 122.231 198.508 122.332 198.593L166.797 235.947C166.904 236.033 167.018 236.11 167.138 236.176C167.409 236.337 167.717 236.421 168.032 236.422C168.47 236.402 168.889 236.236 169.222 235.949L210.725 204.068L213.958 201.595C214.071 201.517 214.167 201.417 214.24 201.3C214.314 201.184 214.362 201.053 214.383 200.917C214.404 200.782 214.397 200.643 214.363 200.51C214.329 200.377 214.267 200.252 214.183 200.143Z" fill="black"/>
<path opacity="0.4" d="M174.818 212.997C170.702 213.023 166.595 212.592 162.573 211.713L162.474 211.714L122.638 198.78C122.433 198.714 122.254 198.583 122.128 198.407C122.003 198.231 121.938 198.019 121.943 197.803C121.948 197.586 122.022 197.378 122.155 197.207C122.288 197.037 122.473 196.914 122.681 196.857L157.992 187.044C158.528 186.89 159.064 188.835 158.529 188.983L126.44 197.892L163.04 209.756C175.172 212.357 186.743 210.785 194.81 205.439C201.782 200.819 206.272 193.489 208.147 183.642C208.172 183.512 208.222 183.388 208.295 183.278C208.367 183.167 208.461 183.072 208.571 182.998C208.68 182.924 208.803 182.872 208.933 182.846C209.063 182.819 209.196 182.819 209.326 182.844C209.456 182.868 209.579 182.918 209.69 182.99C209.8 183.062 209.895 183.155 209.969 183.264C210.044 183.373 210.095 183.496 210.122 183.625C210.148 183.754 210.149 183.887 210.123 184.017C208.113 194.417 203.366 202.188 195.924 207.117C190.209 210.911 182.856 212.912 174.818 212.997Z" fill="black"/>
<path opacity="0.4" d="M167.614 236.341C167.381 236.344 167.154 236.266 166.973 236.119C166.792 235.973 166.668 235.767 166.623 235.539L149.315 150.201C149.283 149.949 149.348 149.693 149.497 149.486C149.646 149.279 149.867 149.136 150.116 149.085C150.366 149.034 150.625 149.08 150.843 149.212C151.061 149.344 151.221 149.554 151.29 149.799L168.598 235.1C168.625 235.23 168.626 235.364 168.601 235.494C168.576 235.624 168.525 235.748 168.452 235.859C168.379 235.969 168.285 236.064 168.175 236.138C168.065 236.212 167.941 236.264 167.811 236.29C167.748 236.314 167.681 236.332 167.614 236.341Z" fill="black"/>
<path opacity="0.4" d="M192.025 218.117C191.819 218.119 191.617 218.058 191.446 217.943C191.276 217.827 191.144 217.662 191.07 217.47L188.111 209.724C188.017 209.474 188.026 209.196 188.136 208.953C188.246 208.709 188.448 208.519 188.698 208.424C188.821 208.376 188.952 208.354 189.084 208.357C189.215 208.361 189.345 208.39 189.465 208.444C189.586 208.498 189.694 208.575 189.784 208.671C189.874 208.768 189.945 208.881 189.991 209.004L192.951 216.75C193.008 216.901 193.027 217.064 193.008 217.225C192.99 217.385 192.932 217.539 192.842 217.673C192.751 217.807 192.629 217.917 192.487 217.995C192.345 218.072 192.186 218.114 192.025 218.117Z" fill="black"/>
<path opacity="0.4" d="M229.855 259.232C229.711 259.233 229.569 259.204 229.438 259.145C229.307 259.087 229.19 259.001 229.094 258.894L219.121 247.814C219.018 247.7 218.944 247.563 218.905 247.414L207.144 205.068C207.108 204.941 207.099 204.808 207.115 204.677C207.131 204.545 207.173 204.419 207.238 204.304C207.369 204.072 207.588 203.901 207.845 203.83C208.102 203.759 208.377 203.793 208.609 203.924C208.841 204.056 209.011 204.274 209.082 204.531L220.777 246.644L230.593 257.563C230.722 257.707 230.807 257.886 230.837 258.077C230.867 258.268 230.842 258.464 230.764 258.642C230.687 258.819 230.56 258.97 230.398 259.077C230.237 259.184 230.048 259.243 229.855 259.246L229.855 259.232Z" fill="black"/>
<path opacity="0.4" d="M209.151 203.01L206.466 171.16C206.402 170.453 209.079 170.199 209.143 170.933L211.828 202.784C211.886 203.526 209.215 203.717 209.151 203.01Z" fill="black"/>
</g>
<path d="M208.592 196.314C208.592 196.314 208.723 198.617 208.687 199.926C208.652 201.234 206.344 202.969 207.111 205.337C207.879 207.704 208.9 211.363 208.9 211.363C209.075 211.436 209.262 211.473 209.452 211.472C209.641 211.472 209.828 211.433 210.002 211.358C210.176 211.284 210.333 211.176 210.464 211.039C210.595 210.903 210.698 210.742 210.766 210.565L209.758 206.928C209.61 206.4 209.623 205.84 209.797 205.32C209.97 204.8 210.296 204.344 210.731 204.012L211.124 203.711C211.307 203.572 211.521 203.479 211.747 203.442C211.974 203.404 212.206 203.422 212.424 203.494C212.642 203.566 212.839 203.691 212.998 203.856C213.158 204.021 213.274 204.223 213.338 204.444L214.433 208.384C214.624 208.429 214.822 208.436 215.015 208.403C215.209 208.371 215.394 208.299 215.559 208.194C215.725 208.089 215.868 207.952 215.98 207.791C216.091 207.629 216.17 207.447 216.21 207.255C216.21 207.255 214.84 202.045 214.233 200.136C213.757 198.628 211.516 199.274 211.374 197.295L211.181 195.07C211.263 196.102 209.146 197.178 208.592 196.314Z" fill="#37474F"/>
<path opacity="0.15" d="M209.143 170.933C209.079 170.227 206.402 170.425 206.466 171.16L207.273 180.554C208.099 181.154 209.055 181.551 210.064 181.713L209.143 170.933Z" fill="black"/>
<path d="M168.957 225.015C166.624 223.703 164.538 223.647 163.056 224.589C162.754 224.79 162.353 224.964 161.988 225.202C161.879 225.264 161.773 225.334 161.672 225.41L161.616 225.446C161.475 225.548 161.341 225.661 161.217 225.782L161.133 225.861C161.021 225.975 160.916 226.097 160.811 226.225L160.707 226.375C160.615 226.495 160.531 226.621 160.456 226.752L160.338 226.972L160.151 227.349C160.11 227.449 160.076 227.555 160.042 227.661C160.007 227.768 159.952 227.903 159.911 228.03C159.87 228.158 159.843 228.3 159.809 228.435C159.775 228.569 159.755 228.668 159.735 228.789C159.715 228.909 159.683 229.143 159.663 229.327C159.644 229.511 159.63 229.525 159.624 229.624C159.627 229.921 159.588 230.219 159.591 230.537C159.647 235.747 163.376 242.042 167.92 244.589C168.205 244.748 168.482 244.894 168.759 245.018L169.249 245.204C169.356 245.245 169.469 245.301 169.583 245.335L169.909 245.423L170.377 245.545L170.561 245.543C170.755 245.58 170.951 245.606 171.148 245.622C172.082 245.705 173.017 245.476 173.807 244.972C174.2 244.734 174.552 244.561 174.994 244.252C176.399 243.375 177.291 241.548 177.264 238.996C177.231 233.856 173.502 227.554 168.957 225.015ZM166.791 240.747C165.365 239.667 163.379 236.386 162.589 234.549C163.048 234.859 163.523 235.144 164.012 235.404C166.145 236.484 166.079 234.993 166.953 236.016C167.826 237.039 167.698 239.578 167.005 240.894C166.926 240.847 166.854 240.791 166.791 240.726L166.791 240.747ZM170.831 231.018C170.711 231.063 170.595 231.118 170.486 231.185L169.242 231.905C168.978 232.053 168.762 232.274 168.62 232.541C167.555 231.477 166.296 228.069 166.378 226.456C168.215 227.059 171.289 229.571 171.766 230.549C171.805 230.622 171.835 230.7 171.854 230.781C171.506 230.819 171.163 230.891 170.831 230.997L170.831 231.018ZM164.62 230.01C165.353 232.469 166.367 232.819 166.44 233.639C164.832 233.401 162.179 231.867 162.014 230.313C161.948 228.806 162.435 227.328 163.384 226.155C164.066 226.424 164.032 227.973 164.62 230.01ZM169.387 242.89C168.531 242.122 169.47 241.355 169.884 239.739C170.09 238.971 170.082 238.162 169.859 237.399C171.549 238.703 174.095 242.141 173.456 243.18C173.432 243.215 173.407 243.248 173.379 243.279C171.941 243.662 169.98 243.436 169.387 242.89ZM173.324 237.475C171.518 235.126 170.827 235.946 170.382 234.679C170.298 234.37 170.306 234.043 170.406 233.739C170.506 233.435 170.693 233.167 170.943 232.969C171.404 232.784 171.914 232.767 172.386 232.919C172.858 233.072 173.261 233.385 173.526 233.804C174.412 235.336 174.922 238.144 175.004 239.883C174.531 239.265 173.999 238.394 173.31 237.476L173.324 237.475Z" fill="#E0E0E0"/>
<path opacity="0.2" d="M168.957 225.015C166.624 223.703 164.538 223.647 163.056 224.589C162.754 224.79 162.353 224.964 161.988 225.202C161.879 225.264 161.773 225.334 161.672 225.41L161.616 225.446C161.475 225.548 161.341 225.661 161.217 225.782L161.133 225.861C161.021 225.975 160.916 226.097 160.811 226.225L160.707 226.375C160.615 226.495 160.531 226.621 160.456 226.752L160.338 226.972L160.151 227.349C160.11 227.449 160.076 227.555 160.042 227.661C160.007 227.768 159.952 227.903 159.911 228.03C159.87 228.158 159.843 228.3 159.809 228.435C159.775 228.569 159.755 228.668 159.735 228.789C159.715 228.909 159.683 229.143 159.663 229.327C159.644 229.511 159.63 229.525 159.624 229.624C159.627 229.921 159.588 230.219 159.591 230.537C159.647 235.747 163.376 242.042 167.92 244.589C168.205 244.748 168.482 244.894 168.759 245.018L169.249 245.204C169.356 245.245 169.469 245.301 169.583 245.335L169.909 245.423L170.377 245.545L170.561 245.543C170.755 245.58 170.951 245.606 171.148 245.622C172.082 245.705 173.017 245.476 173.807 244.972C174.2 244.734 174.552 244.561 174.994 244.252C176.399 243.375 177.291 241.548 177.264 238.996C177.231 233.856 173.502 227.554 168.957 225.015ZM166.791 240.747C165.365 239.667 163.379 236.386 162.589 234.549C163.048 234.859 163.523 235.144 164.012 235.404C166.145 236.484 166.079 234.993 166.953 236.016C167.826 237.039 167.698 239.578 167.005 240.894C166.926 240.847 166.854 240.791 166.791 240.726L166.791 240.747ZM170.831 231.018C170.711 231.063 170.595 231.118 170.486 231.185L169.242 231.905C168.978 232.053 168.762 232.274 168.62 232.541C167.555 231.477 166.296 228.069 166.378 226.456C168.215 227.059 171.289 229.571 171.766 230.549C171.805 230.622 171.835 230.7 171.854 230.781C171.506 230.819 171.163 230.891 170.831 230.997L170.831 231.018ZM164.62 230.01C165.353 232.469 166.367 232.819 166.44 233.639C164.832 233.401 162.179 231.867 162.014 230.313C161.948 228.806 162.435 227.328 163.384 226.155C164.066 226.424 164.032 227.973 164.62 230.01ZM169.387 242.89C168.531 242.122 169.47 241.355 169.884 239.739C170.09 238.971 170.082 238.162 169.859 237.399C171.549 238.703 174.095 242.141 173.456 243.18C173.432 243.215 173.407 243.248 173.379 243.279C171.941 243.662 169.98 243.436 169.387 242.89ZM173.324 237.475C171.518 235.126 170.827 235.946 170.382 234.679C170.298 234.37 170.306 234.043 170.406 233.739C170.506 233.435 170.693 233.167 170.943 232.969C171.404 232.784 171.914 232.767 172.386 232.919C172.858 233.072 173.261 233.385 173.526 233.804C174.412 235.336 174.922 238.144 175.004 239.883C174.531 239.265 173.999 238.394 173.31 237.476L173.324 237.475Z" fill="black"/>
<path d="M167.707 225.735C163.162 223.181 159.522 225.334 159.577 230.544C159.633 235.754 163.362 242.049 167.907 244.596C172.451 247.143 176.077 245.004 176.022 239.794C175.966 234.584 172.244 228.282 167.707 225.735ZM165.684 226.315C167.302 226.298 171.217 229.424 171.766 230.542C172.315 231.66 170.89 231.258 169.594 231.739C167.939 232.336 168.741 233.932 167.768 233.54C166.341 232.954 164.078 226.289 165.676 226.301L165.684 226.315ZM163.249 226.093C164.085 226.226 163.975 227.853 164.62 230.003C165.405 232.723 166.595 232.88 166.436 233.9C166.204 235.402 161.034 233.251 160.749 231.026C160.464 228.802 162.413 225.939 163.249 226.079L163.249 226.093ZM165.533 241.461C163.751 240.101 161.02 235.209 160.987 234.177C160.955 233.145 162.335 234.552 164.012 235.397C166.145 236.477 166.08 234.986 166.953 236.009C168.262 237.494 167.329 242.806 165.547 241.446L165.533 241.461ZM173.406 243.194C172.579 244.546 168.972 244.401 168.115 243.632C167.259 242.864 168.198 242.097 168.619 240.474C169.149 238.425 167.921 237.335 168.624 236.938C169.657 236.362 174.254 241.828 173.42 243.18L173.406 243.194ZM172.053 238.21C170.253 235.861 169.555 236.681 169.117 235.413C168.461 233.568 172.23 231.626 173.498 233.818C174.765 236.011 175.269 240.827 174.773 241.377C174.277 241.927 173.493 240.047 172.067 238.196L172.053 238.21Z" fill="#E0E0E0"/>
<path d="M167.837 238.05C169.259 238.827 170.334 238.172 170.317 236.574C170.261 235.708 170.001 234.868 169.56 234.121C169.118 233.374 168.507 232.741 167.776 232.274C166.353 231.49 165.272 232.152 165.288 233.714C165.339 234.587 165.597 235.435 166.04 236.189C166.483 236.943 167.099 237.581 167.837 238.05Z" fill="#455A64"/>
<path d="M159.689 248.444C159.586 248.446 159.484 248.423 159.392 248.377C159.312 248.339 159.24 248.286 159.181 248.221C159.122 248.155 159.077 248.079 159.047 247.995C159.018 247.912 159.006 247.824 159.011 247.736C159.016 247.648 159.039 247.561 159.078 247.482L164.481 236.233L167.368 234.527C167.522 234.444 167.701 234.424 167.869 234.471C168.037 234.518 168.18 234.628 168.268 234.779C168.356 234.929 168.382 235.108 168.34 235.277C168.299 235.447 168.193 235.593 168.045 235.686L165.516 237.183L160.286 248.063C160.233 248.177 160.148 248.273 160.043 248.34C159.937 248.407 159.815 248.444 159.689 248.444Z" fill="#263238"/>
<path d="M164.603 250.414L157.632 246.487C157.442 246.381 157.227 246.326 157.009 246.329C156.79 246.331 156.577 246.39 156.388 246.5L146.798 252.18C146.609 252.29 146.453 252.448 146.346 252.638C146.239 252.828 146.184 253.043 146.187 253.261L146.193 253.883C146.196 254.101 146.256 254.314 146.368 254.502C146.479 254.689 146.637 254.844 146.827 254.951L153.812 258.886C154.002 258.992 154.217 259.046 154.435 259.044C154.654 259.041 154.867 258.982 155.056 258.872L164.639 253.185C164.826 253.074 164.98 252.916 165.086 252.726C165.192 252.536 165.246 252.322 165.243 252.104L165.236 251.489C165.235 251.27 165.175 251.055 165.064 250.867C164.953 250.678 164.794 250.522 164.603 250.414Z" fill="#322375"/>
<path opacity="0.2" d="M164.603 250.414L157.632 246.487C157.442 246.381 157.227 246.326 157.009 246.329C156.79 246.331 156.577 246.39 156.388 246.5L146.798 252.18C146.609 252.29 146.453 252.448 146.346 252.638C146.239 252.828 146.184 253.043 146.187 253.261L146.193 253.883C146.196 254.101 146.256 254.314 146.368 254.502C146.479 254.689 146.637 254.844 146.827 254.951L153.812 258.886C154.002 258.992 154.217 259.046 154.435 259.044C154.654 259.041 154.867 258.982 155.056 258.872L164.639 253.185C164.826 253.074 164.98 252.916 165.086 252.726C165.192 252.536 165.246 252.322 165.243 252.104L165.236 251.489C165.235 251.27 165.175 251.055 165.064 250.867C164.953 250.678 164.794 250.522 164.603 250.414Z" fill="black"/>
<path d="M153.832 256.856C154.01 256.956 154.21 257.007 154.414 257.004C154.617 257.002 154.816 256.947 154.992 256.844L165.067 250.869C164.957 250.677 164.796 250.52 164.603 250.414L162.661 249.318L157.632 246.487C157.442 246.381 157.227 246.326 157.008 246.329C156.79 246.331 156.576 246.39 156.388 246.5L155.229 247.219L146.798 252.208C146.611 252.321 146.455 252.478 146.343 252.665L153.832 256.856Z" fill="#322375"/>
<path d="M179.82 165.227C177.756 161.955 172.94 157.198 172.94 157.198C172.94 157.198 160.485 140.8 146.953 148.805C145.699 149.486 144.624 150.453 143.815 151.627C143.005 152.802 142.485 154.151 142.295 155.564C142.142 156.542 142.119 157.536 142.227 158.52C142.341 160.046 142.947 161.493 143.954 162.645C145.775 165.107 150.866 167.09 156.962 168.559C157.394 168.668 157.833 168.762 158.273 168.864C160.448 169.335 162.637 169.736 164.819 170.152C167.001 170.567 169.155 170.989 171.296 171.497C172.168 171.721 173.04 171.966 173.892 172.276C174.239 172.399 174.601 172.537 174.928 172.689C175.322 172.968 175.774 173.156 176.249 173.24C176.853 173.224 177.451 173.112 178.02 172.91C178.27 172.809 178.507 172.675 178.723 172.514C179.491 171.896 180.06 171.067 180.359 170.128C180.633 169.322 180.726 168.465 180.633 167.618C180.54 166.771 180.262 165.955 179.82 165.227Z" fill="#9A4A4D"/>
<path d="M146.953 148.805C142.85 151.232 140.663 155.645 143.927 160.093C145.748 162.548 150.839 164.531 156.935 166.007C163.031 167.484 173.423 168.752 176.012 170.818C178.6 172.883 182.236 169.083 179.82 165.227C177.756 161.955 172.94 157.198 172.94 157.198C172.94 157.198 160.485 140.8 146.953 148.805Z" fill="#B16668"/>
<path d="M152.383 241.508L160.134 242.352L163.161 228.47L153.73 229.164L152.383 241.508Z" fill="#FFA8A7"/>
<path d="M170.094 258.232C170.196 258.812 170.084 259.408 169.78 259.911C169.417 260.353 168.641 261.21 165.793 261.368C163.639 261.545 161.476 261.141 159.531 260.197C157.633 259.241 155.974 258.113 155.372 256.034C154.888 254.356 154.533 252.267 153.035 250.975C151.536 249.683 150.615 249.453 150.177 248.178C149.695 246.684 150.6 243.365 150.6 243.365L170.094 258.232Z" fill="#37474F"/>
<path d="M161.309 241.795C161.26 242.453 161.307 243.115 161.45 243.759C162.017 245.785 162.984 247.676 164.294 249.322C164.699 249.885 165.154 250.41 165.654 250.891C166.682 251.835 168.017 252.407 168.976 253.422C169.442 253.923 169.802 254.513 170.033 255.158C170.263 255.802 170.36 256.486 170.316 257.169C170.309 257.558 170.222 257.941 170.06 258.294C169.899 258.647 169.666 258.963 169.376 259.223C169.021 259.473 168.619 259.65 168.194 259.744C165.303 260.473 162.242 260.051 159.655 258.569C158.358 257.91 157.279 256.891 156.549 255.633C155.827 254.226 155.094 251.774 154.231 250.461C153.513 249.394 152.381 248.692 151.488 247.761C149.536 245.717 150.431 242.766 151.346 240.423C151.828 239.195 152.372 237.804 152.805 237.969C152.741 238.627 152.728 238.677 153.15 239.195C153.68 239.819 153.618 240.668 154.19 241.242C154.052 240.669 153.965 240.086 153.931 239.498C153.919 239.26 153.995 239.025 154.143 238.838C154.374 238.676 154.639 238.569 154.918 238.526C155.89 238.313 156.881 238.198 157.877 238.184C158.83 238.125 159.786 238.222 160.708 238.472C160.979 238.551 161.214 238.724 161.37 238.96C161.511 239.216 161.568 239.509 161.535 239.799C161.497 240.188 161.358 241.166 161.309 241.795Z" fill="#455A64"/>
<path d="M163.641 248.402C162.75 247.705 160.749 247.726 159.662 247.844C158.551 247.935 157.481 248.309 156.555 248.93C156.419 249.028 156.252 249.074 156.085 249.06C155.918 249.047 155.761 248.974 155.642 248.855C155.572 248.788 155.517 248.706 155.482 248.615C155.446 248.524 155.431 248.427 155.437 248.33C155.444 248.233 155.471 248.138 155.518 248.053C155.565 247.967 155.631 247.893 155.709 247.836C156.737 247.081 157.959 246.634 159.231 246.547C161.923 246.356 162.705 246.822 162.705 246.822C162.705 246.822 163.908 247.608 163.641 248.402Z" fill="#F5F5F5"/>
<path d="M166.018 251.205C164.873 250.581 162.683 250.753 161.596 250.913C160.51 251.059 159.482 251.492 158.619 252.168C158.486 252.272 158.32 252.325 158.152 252.318C157.983 252.311 157.823 252.243 157.699 252.128C157.632 252.06 157.579 251.978 157.543 251.889C157.508 251.8 157.492 251.704 157.495 251.608C157.498 251.512 157.52 251.418 157.561 251.331C157.601 251.244 157.659 251.166 157.731 251.102C158.741 250.281 159.959 249.754 161.25 249.58C163.926 249.297 164.646 249.82 164.646 249.82C164.965 249.932 165.254 250.114 165.492 250.355C165.729 250.595 165.909 250.885 166.018 251.205Z" fill="#F5F5F5"/>
<path d="M158.336 243.51C159.485 243.444 160.632 243.675 161.666 244.181C162.108 244.495 162.335 245.27 162.012 245.429C161.112 244.946 160.106 244.694 159.084 244.697C158.071 244.683 157.063 244.844 156.105 245.174C155.866 245.254 155.577 245.363 155.331 245.472C155.251 245.505 155.164 245.522 155.078 245.521C154.991 245.521 154.905 245.502 154.825 245.468C154.745 245.433 154.674 245.382 154.614 245.319C154.554 245.255 154.508 245.181 154.479 245.099C154.436 244.962 154.444 244.814 154.503 244.683C154.561 244.553 154.666 244.448 154.796 244.388C155.9 243.848 157.107 243.548 158.336 243.51Z" fill="#F5F5F5"/>
<path d="M187.403 141.61L150.78 142.289C148.632 149.482 148.713 157.157 151.013 164.303C154.484 174.97 161.601 193.984 161.601 193.984C158.913 197.934 156.931 202.321 155.742 206.949C153.864 214.463 152.822 234.278 152.822 234.278C152.822 234.278 158.054 237.56 161.727 235.902C161.727 235.902 172.909 207 176.045 197.295C179.18 187.59 175.341 158.94 175.341 158.94C175.341 158.94 185.361 149.077 187.403 141.61Z" fill="#37474F"/>
<path d="M166.843 178.933C167.725 180.79 170.409 185.201 171.872 186.458C174.376 188.631 176.46 187.824 176.46 187.824L175.701 182.883L171.36 178.234L166.843 178.933Z" fill="#F28F8F"/>
<path d="M187.222 93.1959C192.049 93.6397 195.104 97.708 198.66 105.094C202.217 112.48 211.058 129.432 211.058 129.432L234.092 144.742L235.195 152.755L233.796 154.184L229.532 152.108L206.477 140.171C204.415 139.087 202.633 137.54 201.268 135.652C198.557 131.325 187.887 111.253 187.887 111.253L187.222 93.1959Z" fill="#FFA8A7"/>
<path d="M187.222 93.1959C187.222 93.1959 188.821 92.6699 191.578 94.5638C194.334 96.4577 196.069 99.4017 199.347 105.794C202.624 112.186 205.91 118.719 205.91 118.719C205.91 118.719 203.144 124.567 195.084 125.904L187.29 112.949L187.222 93.1959Z" fill="#322375"/>
<path opacity="0.3" d="M187.222 93.1959C187.222 93.1959 188.821 92.6699 191.578 94.5638C194.334 96.4577 196.069 99.4017 199.347 105.794C202.624 112.186 205.91 118.719 205.91 118.719C205.91 118.719 203.144 124.567 195.084 125.904L187.29 112.949L187.222 93.1959Z" fill="black"/>
<path d="M236.369 155.472L234.209 151.804L243.189 146.498C243.359 146.412 243.55 146.374 243.741 146.388C243.932 146.403 244.115 146.468 244.271 146.579C244.712 146.862 245.081 147.245 245.347 147.696C245.614 148.148 245.77 148.655 245.805 149.179C245.824 149.361 245.797 149.544 245.724 149.712C245.651 149.881 245.537 150.027 245.391 150.137L236.369 155.472Z" fill="#455A64"/>
<path d="M236.797 154.492C236.807 155.453 236.105 155.85 235.294 155.377C234.853 155.095 234.485 154.714 234.218 154.263C233.952 153.813 233.795 153.307 233.76 152.785C233.75 151.823 234.453 151.427 235.257 151.899C235.699 152.18 236.07 152.561 236.337 153.011C236.605 153.462 236.763 153.969 236.797 154.492Z" fill="#37474F"/>
<path d="M230.988 142.683C233.274 143.57 240.727 143.668 242.922 145.321C245.117 146.973 245.905 151.299 244.857 153.141C243.809 154.983 239.73 156.999 238.078 156.585C236.426 156.171 236.376 155.451 236.376 155.451L237.655 154.73C237.655 154.73 238.517 150.656 235.917 150.811L234.174 151.798L232.188 149.16L230.988 142.683Z" fill="#FFA8A7"/>
<path d="M235.929 153.992C235.936 154.13 235.898 154.267 235.82 154.382L235.588 154.512L223.869 161.445C223.198 161.844 222.644 162.412 222.262 163.092C221.88 163.772 221.682 164.541 221.69 165.321C221.699 166.453 221.411 167.568 220.855 168.554C220.298 169.54 219.493 170.363 218.518 170.94L210.389 175.749L209.367 174.013L217.489 169.204C218.159 168.809 218.714 168.243 219.096 167.565C219.479 166.887 219.676 166.121 219.668 165.342C219.659 164.21 219.946 163.095 220.501 162.108C221.056 161.121 221.86 160.296 222.832 159.716L234.615 152.754L234.735 152.683C234.809 152.66 234.888 152.654 234.965 152.666C235.042 152.677 235.116 152.705 235.181 152.748C235.394 152.883 235.572 153.066 235.702 153.282C235.832 153.498 235.91 153.741 235.929 153.992Z" fill="#E0E0E0"/>
<path d="M159.105 104.672C155.442 115.896 150.78 142.289 150.78 142.289C155.418 148.327 177.39 152.774 187.403 141.61C190.398 131.448 192.589 121.066 193.953 110.56C194.952 102.736 194.722 96.4111 188.036 93.2933L176.709 91.8933L167.324 92.9544C162.617 95.1324 160.482 100.443 159.105 104.672Z" fill="#F0F0F0"/>
<path opacity="0.1" d="M151.295 142.877C156.249 147.971 173.304 151.538 183.836 144.653C181.855 145.664 179.661 146.188 177.437 146.182C175.213 146.176 173.022 145.64 171.046 144.619C167.74 142.865 165.43 133.741 165.43 133.741L169.438 108.317L156.411 114.585C153.494 126.868 150.766 142.303 150.766 142.303C150.909 142.485 151.074 142.674 151.245 142.856C151.264 142.858 151.281 142.865 151.295 142.877Z" fill="black"/>
<path d="M200.722 68.5028C201.386 62.4991 197.057 57.0938 191.054 56.4296C185.05 55.7655 179.645 60.094 178.981 66.0977C178.316 72.1013 182.645 77.5066 188.649 78.1708C194.652 78.835 200.058 74.5064 200.722 68.5028Z" fill="#263238"/>
<path d="M170.742 74.5499C170.742 74.5499 172.28 82.9258 172.966 84.3114C173.419 85.1701 174.186 85.8206 175.107 86.1269L175.144 80.2725L170.742 74.5499Z" fill="#263238"/>
<path d="M173.288 62.6874C172.67 62.6008 172.04 62.6565 171.447 62.8503C170.854 63.0441 170.312 63.3707 169.864 63.8055C168.359 65.2354 169.053 69.9439 170.742 74.564L174.07 75.0448L173.288 62.6874Z" fill="#263238"/>
<path d="M175.067 75.0626C174.364 75.4447 173.466 74.1321 172.665 73.2498C171.864 72.3675 169.206 71.1089 167.78 73.9026C166.353 76.6963 168.784 80.6368 170.885 81.3569C174.511 82.6053 175.115 80.2798 175.115 80.2798L175.043 93.4452C178.093 97.047 189.564 100.072 186.942 93.4181L187.041 89.4083C188.683 89.6338 190.337 89.7627 191.994 89.7941C193.853 89.739 195.91 88.4163 197.104 84.2959C198.59 79.1401 198.669 72.5358 197.821 65.9059C196.644 56.8898 185.835 56.3539 179.392 60.1694C172.949 63.9849 175.067 75.0626 175.067 75.0626Z" fill="#FFA8A7"/>
<path d="M175.037 76.187C174.738 76.0276 173.479 74.0189 172.665 73.2427C171.544 72.1587 173.26 62.6877 173.26 62.6877C173.26 62.6877 172.217 60.2949 174.511 57.9092C175.651 56.6694 177.1 55.7541 178.709 55.2564C180.318 54.7587 182.031 54.6964 183.672 55.0759C186.966 55.748 190.334 56.6173 193.663 55.8114C195.293 55.3245 196.954 54.9479 198.635 54.684C198.735 54.6448 198.844 54.6346 198.95 54.6545C199.055 54.6744 199.153 54.7236 199.232 54.7966C199.311 54.8695 199.368 54.9631 199.396 55.0668C199.425 55.1705 199.423 55.2801 199.392 55.383C199.378 56.4862 199.01 57.5557 198.343 58.4343L200.422 57.8749C200.56 57.8165 200.715 57.8148 200.854 57.8703C200.914 57.9219 200.962 57.9869 200.994 58.0602C201.025 58.1334 201.039 58.213 201.035 58.2926C201.094 59.0334 200.985 59.7781 200.717 60.4712C200.449 61.1644 200.029 61.7883 199.486 62.2966C197.218 64.3993 194.765 65.0545 191.74 65.2068C187.725 65.5124 183.687 65.1563 179.787 64.1528C178.548 63.9538 178.25 65.1447 177.492 68.4192C176.76 71.3186 177.66 77.5238 175.037 76.187Z" fill="#263238"/>
<path d="M173.275 63.4299L169.292 61.1461C169.43 60.8766 169.622 60.6382 169.856 60.4455C170.09 60.2527 170.36 60.1098 170.651 60.0253C170.942 59.9408 171.248 59.9166 171.548 59.9541C171.849 59.9916 172.139 60.0901 172.4 60.2435C172.924 60.5633 173.307 61.0711 173.469 61.6632C173.632 62.2554 173.563 62.8873 173.275 63.4299Z" fill="#263238"/>
<path d="M187.041 89.4295C187.041 89.4295 181.073 88.0787 179.01 86.8845C177.793 86.2063 176.809 85.1769 176.186 83.9308C176.47 85.1682 176.999 86.3359 177.743 87.3646C179.22 89.3639 186.973 91.028 186.973 91.028L187.041 89.4295Z" fill="#F28F8F"/>
<path d="M186.735 73.9137C186.718 74.1484 186.632 74.373 186.489 74.5595C186.345 74.7461 186.15 74.8864 185.927 74.963C185.705 75.0396 185.465 75.0491 185.237 74.9905C185.009 74.9318 184.803 74.8075 184.645 74.633C184.487 74.4585 184.384 74.2414 184.348 74.0087C184.312 73.7761 184.346 73.5381 184.444 73.3242C184.543 73.1104 184.702 72.9301 184.901 72.8059C185.101 72.6816 185.333 72.6187 185.569 72.6251C185.73 72.6324 185.888 72.6716 186.035 72.7405C186.181 72.8093 186.312 72.9065 186.42 73.0263C186.529 73.1461 186.612 73.2862 186.666 73.4385C186.72 73.5908 186.744 73.7523 186.735 73.9137Z" fill="#263238"/>
<path d="M185.627 69.4642L183.018 70.8069C182.845 70.4461 182.82 70.0319 182.948 69.6528C183.076 69.2737 183.348 68.9596 183.704 68.7776C183.875 68.6922 184.061 68.6422 184.251 68.6307C184.442 68.6191 184.632 68.6462 184.812 68.7104C184.992 68.7745 185.157 68.8744 185.297 69.0039C185.437 69.1335 185.549 69.2901 185.627 69.4642Z" fill="#263238"/>
<path d="M186.066 82.1999L188.786 83.3094C188.724 83.4944 188.625 83.6647 188.494 83.8094C188.363 83.9542 188.204 84.0703 188.026 84.1506C187.848 84.2308 187.656 84.2734 187.461 84.2757C187.266 84.2779 187.073 84.2398 186.893 84.1638C186.529 84.0059 186.24 83.7136 186.086 83.3477C185.932 82.9819 185.925 82.5708 186.066 82.1999Z" fill="#F28F8F"/>
<path d="M197.705 71.0047L195.123 69.5191C195.21 69.3455 195.332 69.1917 195.482 69.0674C195.631 68.9431 195.804 68.8508 195.991 68.7964C196.177 68.7421 196.373 68.7267 196.565 68.7513C196.758 68.7759 196.944 68.8399 197.111 68.9394C197.454 69.1435 197.706 69.4706 197.817 69.8543C197.927 70.238 197.887 70.6494 197.705 71.0047Z" fill="#263238"/>
<path d="M196.585 74.0496C196.569 74.2848 196.485 74.5102 196.342 74.6977C196.199 74.8852 196.004 75.0266 195.782 75.1043C195.559 75.1819 195.319 75.1925 195.09 75.1345C194.862 75.0766 194.655 74.9527 194.497 74.7784C194.338 74.6041 194.234 74.3869 194.198 74.154C194.162 73.9211 194.195 73.6827 194.293 73.4684C194.392 73.2542 194.551 73.0736 194.751 72.9491C194.951 72.8246 195.183 72.7616 195.419 72.7681C195.58 72.7755 195.738 72.8144 195.883 72.8829C196.029 72.9513 196.16 73.0478 196.268 73.1668C196.376 73.2859 196.46 73.4251 196.514 73.5766C196.569 73.7281 196.593 73.8888 196.585 74.0496Z" fill="#263238"/>
<path d="M190.073 72.634L189.986 79.8182L193.624 79.5251L190.073 72.634Z" fill="#F28F8F"/>
<path d="M216.393 173.239C216.344 172.876 216.2 172.532 215.978 172.241C215.756 171.949 215.461 171.721 215.124 171.577L209.818 168.593L204.408 171.789L204.442 174.935L209.748 177.926C210.62 178.379 211.588 178.619 212.571 178.626C213.554 178.633 214.525 178.406 215.404 177.965C215.71 177.826 215.97 177.604 216.156 177.325C216.341 177.046 216.445 176.72 216.455 176.385C216.455 176.385 216.421 173.818 216.393 173.239Z" fill="#37474F"/>
<path d="M209.819 168.593L215.125 171.577C216.732 172.486 216.832 173.941 215.336 174.82C214.457 175.261 213.486 175.487 212.503 175.48C211.519 175.474 210.552 175.234 209.679 174.781L204.38 171.79L209.819 168.593Z" fill="#455A64"/>
<path d="M209.135 176.165C209.143 176.315 209.094 176.462 208.998 176.577L208.85 176.663L202.302 180.543C200.932 181.357 199.975 181.141 199.421 180.828C198.866 180.516 198.058 179.648 198.037 177.654C198.026 176.636 197.774 176.243 197.675 176.244C197.576 176.245 197.286 176.248 196.801 176.508L177.831 187.724L176.808 185.989L195.779 174.78C197.149 173.973 198.099 174.175 198.661 174.495C199.222 174.814 200.031 175.675 200.052 177.661C200.062 178.686 200.314 179.073 200.406 179.072C200.498 179.071 200.795 179.068 201.273 178.801L207.87 174.899L207.962 174.848C208.036 174.821 208.116 174.812 208.195 174.822C208.274 174.833 208.349 174.862 208.415 174.907C208.625 175.045 208.801 175.231 208.926 175.45C209.051 175.668 209.123 175.914 209.135 176.165Z" fill="#E0E0E0"/>
<path d="M176.046 190.098L173.886 186.43L182.873 181.124C183.044 181.039 183.235 181.002 183.426 181.018C183.617 181.033 183.8 181.1 183.955 181.212C184.397 181.492 184.766 181.874 185.033 182.324C185.299 182.775 185.455 183.282 185.489 183.804C185.508 183.986 185.481 184.171 185.41 184.34C185.339 184.509 185.226 184.657 185.082 184.77L176.046 190.098Z" fill="#455A64"/>
<path d="M176.474 189.118C176.484 190.079 175.782 190.475 174.978 190.003C174.536 189.722 174.167 189.341 173.9 188.89C173.634 188.44 173.478 187.933 173.444 187.41C173.434 186.449 174.137 186.053 174.941 186.525C175.383 186.806 175.752 187.187 176.018 187.637C176.285 188.088 176.441 188.595 176.474 189.118Z" fill="#263238"/>
<path d="M173.713 171.408C172.493 166.351 167.84 146.314 167.31 142.304C167.018 140.101 169.657 116.905 171.029 107.621C172.401 98.3375 171.575 92.4427 167.338 92.9189C163.101 93.3951 159.494 96.629 158.054 106.189C156.614 115.749 154.052 140.833 155.117 145.954C155.959 149.968 164.511 176.384 168.065 180.821C171.125 184.692 173.713 171.408 173.713 171.408Z" fill="#FFA8A7"/>
<path d="M173.713 171.408C175.292 173.646 181.28 177.606 183.482 179.258C185.684 180.91 186.518 185.54 185.463 187.389C184.408 189.238 179.688 191.48 178.036 191.066C176.384 190.653 176.334 189.939 176.334 189.939L177.621 189.218C178.484 188.672 178.105 185.6 175.875 185.299L173.711 186.594C172.614 186.444 170.321 184.234 169.599 182.17L173.713 171.408Z" fill="#FFA8A7"/>
<path d="M169.471 92.7054C169.471 92.7054 163.472 91.065 160.028 97.6344C156.584 104.204 155.266 124.622 155.266 124.622C155.266 124.622 156.988 126.308 162.558 126.913C168.129 127.519 169.976 125.689 169.976 125.689C169.976 125.689 172.796 104.279 172.593 99.7778C172.39 95.2762 170.801 93.4902 169.471 92.7054Z" fill="#322375"/>
<path opacity="0.2" d="M169.471 92.7054C169.471 92.7054 163.472 91.065 160.028 97.6344C156.584 104.204 155.266 124.622 155.266 124.622C155.266 124.622 156.988 126.308 162.558 126.913C168.129 127.519 169.976 125.689 169.976 125.689C169.976 125.689 172.796 104.279 172.593 99.7778C172.39 95.2762 170.801 93.4902 169.471 92.7054Z" fill="black"/>
</svg>
