<svg width="489" height="455" viewBox="0 0 489 455" fill="none" xmlns="http://www.w3.org/2000/svg">
<g clip-path="url(#clip0_60_181)">
<path d="M489 373.987H0V374.232H489V373.987Z" fill="#EBEBEB"/>
<path d="M435.464 385.186H385.684V385.43H435.464V385.186Z" fill="#EBEBEB"/>
<path d="M97.4772 382.291H51.3058V382.535H97.4772V382.291Z" fill="#EBEBEB"/>
<path d="M389.244 380.647H370.476V380.892H389.244V380.647Z" fill="#EBEBEB"/>
<path d="M323.933 387.132H310.163V387.376H323.933V387.132Z" fill="#EBEBEB"/>
<path d="M301.449 387.132H266.789V387.376H301.449V387.132Z" fill="#EBEBEB"/>
<path d="M246.661 383.004H190.925V383.249H246.661V383.004Z" fill="#EBEBEB"/>
<path d="M231.786 330.368H42.9441C41.4647 330.366 40.0468 329.776 39.0017 328.729C37.9565 327.682 37.3695 326.263 37.3695 324.784V59.3254C37.3824 57.8545 37.9751 56.4481 39.0188 55.4117C40.0626 54.3752 41.4732 53.7924 42.9441 53.7899H231.786C233.267 53.7899 234.688 54.3783 235.735 55.4255C236.782 56.4728 237.371 57.8932 237.371 59.3743V324.784C237.371 326.265 236.782 327.685 235.735 328.733C234.688 329.78 233.267 330.368 231.786 330.368ZM42.9441 53.9855C41.5296 53.9881 40.1739 54.5518 39.1746 55.553C38.1753 56.5541 37.614 57.9109 37.614 59.3254V324.784C37.614 326.198 38.1753 327.555 39.1746 328.556C40.1739 329.557 41.5296 330.121 42.9441 330.124H231.786C233.202 330.121 234.558 329.558 235.559 328.557C236.56 327.556 237.123 326.199 237.126 324.784V59.3254C237.123 57.91 236.56 56.5532 235.559 55.5524C234.558 54.5515 233.202 53.9881 231.786 53.9855H42.9441Z" fill="#EBEBEB"/>
<path d="M443.337 330.368H254.485C253.005 330.366 251.586 329.777 250.539 328.73C249.493 327.683 248.904 326.264 248.901 324.784V59.3254C248.916 57.8536 249.511 56.4472 250.557 55.411C251.602 54.3749 253.014 53.7924 254.485 53.7899H443.337C444.806 53.795 446.214 54.3789 447.256 55.4151C448.298 56.4513 448.889 57.8562 448.902 59.3254V324.784C448.902 326.262 448.316 327.679 447.273 328.726C446.23 329.772 444.815 330.363 443.337 330.368ZM254.485 53.9855C253.07 53.9881 251.713 54.5515 250.712 55.5524C249.712 56.5532 249.148 57.91 249.146 59.3254V324.784C249.148 326.199 249.712 327.556 250.712 328.557C251.713 329.558 253.07 330.121 254.485 330.124H443.337C444.753 330.121 446.109 329.558 447.11 328.557C448.111 327.556 448.674 326.199 448.677 324.784V59.3254C448.674 57.91 448.111 56.5532 447.11 55.5524C446.109 54.5515 444.753 53.9881 443.337 53.9855H254.485Z" fill="#EBEBEB"/>
<path d="M75.3157 201.84L212.852 201.84L212.852 79.7754L75.3157 79.7754L75.3157 201.84Z" fill="#E6E6E6"/>
<path d="M72.2644 201.84L209.801 201.84L209.801 79.7754L72.2644 79.7754L72.2644 201.84Z" fill="#F5F5F5"/>
<path d="M204.314 195.688V85.9468L77.751 85.9468V195.688H204.314Z" fill="white"/>
<path d="M80.0494 195.688V85.9468H77.7413V195.688H80.0494Z" fill="#E6E6E6"/>
<path d="M74.5334 185.184L207.532 185.184V176.91L74.5334 176.91V185.184Z" fill="#F5F5F5"/>
<path d="M66.279 69.5847H218.847C218.958 69.5834 219.069 69.6042 219.172 69.6458C219.275 69.6875 219.369 69.7493 219.448 69.8275C219.527 69.9057 219.59 69.9989 219.633 70.1016C219.676 70.2043 219.698 70.3145 219.698 70.4257C219.695 70.6497 219.604 70.8636 219.445 71.0211C219.286 71.1785 219.071 71.2668 218.847 71.2668H66.279C66.0533 71.2668 65.8369 71.1772 65.6773 71.0176C65.5177 70.858 65.4281 70.6416 65.4281 70.416C65.4294 70.3055 65.4524 70.1964 65.4959 70.0948C65.5393 69.9933 65.6023 69.9013 65.6813 69.8241C65.7604 69.7469 65.8538 69.686 65.9563 69.6449C66.0589 69.6038 66.1685 69.5834 66.279 69.5847Z" fill="#E6E6E6"/>
<path d="M63.3157 70.416C63.3157 70.8338 63.4396 71.2422 63.6718 71.5896C63.9039 71.937 64.2338 72.2077 64.6198 72.3676C65.0058 72.5275 65.4306 72.5694 65.8403 72.4878C66.2501 72.4063 66.6265 72.2051 66.922 71.9097C67.2174 71.6143 67.4186 71.2379 67.5001 70.8281C67.5816 70.4183 67.5398 69.9935 67.3799 69.6075C67.22 69.2215 66.9492 68.8916 66.6018 68.6595C66.2544 68.4274 65.846 68.3035 65.4282 68.3035C64.868 68.3035 64.3306 68.526 63.9345 68.9222C63.5383 69.3184 63.3157 69.8557 63.3157 70.416Z" fill="#E6E6E6"/>
<path d="M211.708 75.1592C212.01 75.1566 212.3 75.0353 212.514 74.8212C212.728 74.6072 212.849 74.3176 212.852 74.0149V71.5602C212.852 71.2567 212.731 70.9656 212.517 70.751C212.302 70.5364 212.011 70.4159 211.708 70.4159C211.407 70.4159 211.118 70.5354 210.906 70.7482C210.693 70.9609 210.573 71.2495 210.573 71.5504V74.0052C210.572 74.1554 210.6 74.3045 210.657 74.4438C210.713 74.5831 210.796 74.71 210.901 74.8171C211.007 74.9243 211.132 75.0097 211.271 75.0684C211.409 75.1271 211.557 75.1579 211.708 75.1592Z" fill="#E6E6E6"/>
<path d="M79.0126 75.1593C79.1658 75.1632 79.3182 75.1365 79.461 75.0809C79.6038 75.0252 79.7341 74.9417 79.8442 74.8352C79.9544 74.7287 80.0422 74.6013 80.1026 74.4605C80.163 74.3197 80.1948 74.1682 80.196 74.015V71.5602C80.1961 71.4066 80.1653 71.2545 80.1053 71.1131C80.0454 70.9717 79.9576 70.8437 79.8472 70.7369C79.7367 70.6302 79.6059 70.5467 79.4625 70.4916C79.3192 70.4364 79.1662 70.4107 79.0126 70.416C78.7118 70.416 78.4232 70.5355 78.2104 70.7482C77.9977 70.961 77.8782 71.2496 77.8782 71.5504V74.0052C77.8769 74.1555 77.9052 74.3045 77.9615 74.4439C78.0178 74.5832 78.101 74.71 78.2064 74.8172C78.3117 74.9244 78.4371 75.0097 78.5755 75.0684C78.7138 75.1271 78.8624 75.158 79.0126 75.1593Z" fill="#E6E6E6"/>
<path opacity="0.4" d="M66.5529 189.898L207.532 189.898L207.532 70.4257L66.5529 70.4257L66.5529 189.898Z" fill="#E0E0E0"/>
<path d="M196.021 70.416C196.021 70.8338 196.144 71.2422 196.377 71.5896C196.609 71.937 196.939 72.2077 197.325 72.3676C197.711 72.5275 198.135 72.5694 198.545 72.4878C198.955 72.4063 199.331 72.2051 199.627 71.9097C199.922 71.6143 200.123 71.2379 200.205 70.8281C200.286 70.4183 200.245 69.9935 200.085 69.6075C199.925 69.2215 199.654 68.8916 199.307 68.6595C198.959 68.4274 198.551 68.3035 198.133 68.3035C197.573 68.3035 197.035 68.526 196.639 68.9222C196.243 69.3184 196.021 69.8557 196.021 70.416Z" fill="#E6E6E6"/>
<path d="M176.353 367.914H207.59L207.59 239.248H176.353V367.914Z" fill="#F0F0F0"/>
<path d="M81.6238 373.987H201.585V367.914H81.6238V373.987Z" fill="#F0F0F0"/>
<path d="M176.343 239.248H75.6288V367.914H176.343V239.248Z" fill="#F5F5F5"/>
<path d="M164.06 287.865H87.9125V319.288H164.06V287.865Z" fill="#F0F0F0"/>
<path d="M164.06 325.029H87.9125V356.452H164.06V325.029Z" fill="#F0F0F0"/>
<path d="M164.06 250.71H87.9125V282.133H164.06V250.71Z" fill="#F0F0F0"/>
<path d="M71.4624 239.248H176.343V228.686H71.4624V239.248Z" fill="#F0F0F0"/>
<path d="M211.942 228.686H176.343V239.248H211.942V228.686Z" fill="#E6E6E6"/>
<path d="M133.067 211.747H116.421V228.676H133.067V211.747Z" fill="#F0F0F0"/>
<path d="M86.8855 228.686H116.411V211.757H86.8855V228.686Z" fill="#F5F5F5"/>
<g style="mix-blend-mode:multiply" opacity="0.7">
<path d="M133.057 214.299H86.7192V215.669H133.057V214.299Z" fill="#E6E6E6"/>
</g>
<path d="M133.976 210.925H116.421V214.886H133.976V210.925Z" fill="#F0F0F0"/>
<path d="M85.9662 214.876H116.411V210.916H85.9662V214.876Z" fill="#F5F5F5"/>
<path d="M192.177 211.747H175.531V228.676H192.177V211.747Z" fill="#F0F0F0"/>
<path d="M146.006 228.686H175.531V211.757H146.006V228.686Z" fill="#F5F5F5"/>
<g style="mix-blend-mode:multiply" opacity="0.7">
<path d="M192.167 214.299H145.83V215.669H192.167V214.299Z" fill="#E6E6E6"/>
</g>
<path d="M193.087 210.925H175.531V214.886H193.087V210.925Z" fill="#F0F0F0"/>
<path d="M145.086 214.876H175.531V210.916H145.086V214.876Z" fill="#F5F5F5"/>
<path d="M366.016 196.578H430.467V117.771L366.016 117.771V196.578Z" fill="#F0F0F0"/>
<path d="M352.178 196.578H426.31V117.771L352.178 117.771V196.578Z" fill="#F5F5F5"/>
<path d="M358.378 123.981V190.368H420.09V123.981H358.378Z" fill="white"/>
<path d="M373.332 144.098V170.231C373.332 172.461 375.14 174.27 377.371 174.27H401.088C403.318 174.27 405.127 172.461 405.127 170.231V144.098C405.127 141.868 403.318 140.059 401.088 140.059H377.371C375.14 140.059 373.332 141.868 373.332 144.098Z" fill="#F5F5F5"/>
<path d="M282.554 159.942H347.004V81.1348L282.554 81.1348V159.942Z" fill="#F0F0F0"/>
<path d="M268.725 159.942H342.858V81.1348L268.725 81.1348V159.942Z" fill="#F5F5F5"/>
<path d="M274.935 87.3452V153.732H336.647V87.3452H274.935Z" fill="white"/>
<path d="M289.889 112.167V128.89C289.889 133.719 293.804 137.634 298.632 137.634H312.94C317.769 137.634 321.684 133.719 321.684 128.89V112.167C321.684 107.338 317.769 103.423 312.94 103.423H298.632C293.804 103.423 289.889 107.338 289.889 112.167Z" fill="#F5F5F5"/>
<path d="M191.972 373.987H238.348L238.348 255.405H191.972V373.987Z" fill="#E6E6E6"/>
<path d="M196.627 373.987H191.962V357.841H201.527L196.627 373.987Z" fill="#F0F0F0"/>
<path d="M264.657 373.987H311.033V255.405H264.657V373.987Z" fill="#E6E6E6"/>
<path d="M191.972 364.07H268.725V255.395H191.972V364.07Z" fill="#F0F0F0"/>
<path d="M195.59 290.026H265.106V260.226H195.59V290.026Z" fill="#E6E6E6"/>
<path d="M223.532 269.478H234.016C238.563 269.478 242.916 265.801 246.045 259.317H211.502C214.632 265.801 218.984 269.478 223.532 269.478Z" fill="#F0F0F0"/>
<path d="M264.05 373.987H268.715V357.841H259.16L264.05 373.987Z" fill="#F0F0F0"/>
<path d="M195.59 324.637H265.106V294.838H195.59V324.637Z" fill="#E6E6E6"/>
<path d="M223.532 304.099H234.016C238.563 304.099 242.916 300.422 246.045 293.928H211.502C214.632 300.422 218.984 304.099 223.532 304.099Z" fill="#F0F0F0"/>
<path d="M195.59 359.259H265.106V329.459H195.59V359.259Z" fill="#E6E6E6"/>
<path d="M223.532 338.721H234.016C238.563 338.721 242.916 335.043 246.045 328.549H211.502C214.632 335.043 218.984 338.721 223.532 338.721Z" fill="#F0F0F0"/>
<path d="M375.014 241.39L366.672 270.681C366.926 333.997 364.07 337.645 364.041 348.53H372.843C373.674 295.542 378.877 300.05 375.014 241.39Z" fill="#F0F0F0"/>
<path d="M373.4 373.987C381.345 373.99 389.052 371.275 395.241 366.294C401.43 361.313 405.729 354.365 407.425 346.603C408.251 342.423 409.439 338.323 410.975 334.349L411.239 333.713H335.571L335.835 334.349C337.367 338.31 338.549 342.397 339.366 346.564C341.056 354.333 345.354 361.291 351.546 366.279C357.737 371.268 365.449 373.988 373.4 373.987Z" fill="#FAFAFA"/>
<path d="M330.672 337.508H416.139L418.584 318.994H328.227L330.672 337.508Z" fill="#F0F0F0"/>
<path d="M370.251 325.224C367.092 264.207 407.357 260.676 423.308 281.312C431.777 303.464 372.07 360.315 370.251 325.224Z" fill="#F0F0F0"/>
<path d="M370.31 299.982C363.865 254.945 393.234 246.436 406.359 259.463C414.075 274.75 374.017 325.889 370.31 299.982Z" fill="#F0F0F0"/>
<path d="M372.188 267.16C365.508 238.74 383.797 231.63 392.921 239.209C398.721 248.539 376.031 283.503 372.188 267.16Z" fill="#F0F0F0"/>
<path d="M366.124 287.415C377.704 252.852 355.787 241.918 343.571 250.251C335.278 261.224 359.464 307.288 366.124 287.415Z" fill="#F0F0F0"/>
<path d="M373.078 269.801C389.909 237.478 369.968 223.258 356.589 229.615C346.701 239.111 363.396 288.393 373.078 269.801Z" fill="#F0F0F0"/>
<path d="M368.814 321.361C377.107 268.089 342.085 261.38 326.222 278.016C316.784 296.706 364.041 351.992 368.814 321.361Z" fill="#F0F0F0"/>
<path d="M244.5 418.154C349.227 418.154 434.124 413.197 434.124 407.083C434.124 400.968 349.227 396.012 244.5 396.012C139.773 396.012 54.8755 400.968 54.8755 407.083C54.8755 413.197 139.773 418.154 244.5 418.154Z" fill="#F5F5F5"/>
<path d="M266.075 398.652H258.525L258.202 381.185H265.752L266.075 398.652Z" fill="#FFB573"/>
<path d="M311.366 398.652H303.826L300.461 381.185H308.002L311.366 398.652Z" fill="#FFB573"/>
<path d="M303.307 397.782H311.786C311.935 397.78 312.08 397.831 312.195 397.926C312.31 398.021 312.387 398.153 312.412 398.3L313.742 404.999C313.771 405.165 313.763 405.335 313.719 405.497C313.675 405.659 313.596 405.809 313.488 405.938C313.38 406.066 313.246 406.17 313.094 406.241C312.942 406.312 312.776 406.349 312.608 406.349C309.674 406.29 308.217 406.124 304.49 406.124C302.192 406.124 297.459 406.359 294.3 406.359C291.141 406.359 290.789 403.229 292.099 402.946C297.967 401.674 300.168 399.914 302.075 398.241C302.42 397.951 302.856 397.788 303.307 397.782Z" fill="#263238"/>
<path d="M258.593 397.782H266.838C266.986 397.781 267.13 397.833 267.244 397.928C267.358 398.022 267.436 398.154 267.463 398.3L268.794 404.999C268.825 405.164 268.82 405.333 268.779 405.495C268.738 405.657 268.661 405.808 268.554 405.937C268.448 406.066 268.314 406.17 268.163 406.241C268.011 406.312 267.846 406.349 267.679 406.349C264.745 406.29 260.412 406.124 256.676 406.124C252.304 406.124 248.529 406.359 243.405 406.359C240.314 406.359 239.493 403.229 240.833 402.946C246.769 401.655 251.591 401.518 256.764 398.369C257.309 398.01 257.941 397.807 258.593 397.782Z" fill="#263238"/>
<path d="M258.378 161.869L250.368 154.651C250.368 154.651 232.764 182.387 229.224 183.932C224.334 186.025 208.089 200.06 202.739 203.307C202.397 204.539 202.485 207.933 203.101 208.92C212.001 208.157 233.527 195.072 237.067 191.776C245.087 184.255 258.378 161.869 258.378 161.869Z" fill="#FFB573"/>
<path d="M263.962 156.167C265.146 163.287 248.715 180.734 248.715 180.734L235.551 169.976C238.964 164.251 242.966 158.898 247.493 154.006C254.28 147.111 262.671 148.362 263.962 156.167Z" fill="#263238"/>
<path opacity="0.2" d="M245.312 177.996L248.715 180.754C248.715 180.754 252.402 176.842 256.148 171.952C260.539 165.575 263.923 159.805 264.031 157.135V157.067C262.358 155.844 252.833 166.182 245.312 177.996Z" fill="black"/>
<path d="M203.825 202.749L196.06 204.187L195.629 212.539C198.934 211.684 202.088 210.325 204.979 208.509L203.825 202.749Z" fill="#FFB573"/>
<path d="M187.776 206.994L188.92 211.287L195.629 212.539L196.06 204.187L187.776 206.994Z" fill="#FFB573"/>
<path opacity="0.2" d="M258.202 381.185L258.368 390.192H265.918L265.752 381.185H258.202Z" fill="black"/>
<path opacity="0.2" d="M308.011 381.185H300.461L302.202 390.192H309.742L308.011 381.185Z" fill="black"/>
<path d="M237.762 165.517L233.243 170.896L247.884 182.964L253.742 177.174L237.762 165.517Z" fill="#3C2D86"/>
<path d="M253.106 150.074C253.106 150.074 243.639 172.861 251.062 215.287H291.444C291.874 209.096 288.725 178.876 295.415 149.693C290.967 148.832 286.469 148.26 281.948 147.981C276.234 147.653 270.507 147.653 264.794 147.981C260.85 148.377 256.942 149.077 253.106 150.074Z" fill="#263238"/>
<path opacity="0.2" d="M286.437 156.891C285.654 161.702 286.887 173.194 291.131 186.475C291.339 175.098 292.55 163.762 294.75 152.597V152.568C292.099 152.265 287.199 152.392 286.437 156.891Z" fill="black"/>
<path d="M280.07 131.942C278.847 137.458 278.114 144.304 281.918 147.981C281.918 147.981 279.561 153.585 269.302 153.585C259.933 153.585 264.764 147.981 264.764 147.981C270.955 146.514 270.818 138.905 269.85 134.612L280.07 131.942Z" fill="#FFB573"/>
<path opacity="0.2" d="M269.85 134.622C270.602 137.607 270.51 140.742 269.586 143.678C270.545 143.535 271.477 143.252 272.353 142.837C275.864 141.204 277.635 138.622 279.512 134.807C279.669 133.829 279.855 132.851 280.07 131.942L269.85 134.622Z" fill="black"/>
<path d="M261.546 127.336C261.712 128.241 262.057 129.105 262.561 129.876C263.064 130.647 263.717 131.309 264.48 131.825C266.544 133.164 268.392 131.463 268.451 129.096C268.529 126.974 267.542 123.707 265.146 123.316C264.619 123.249 264.084 123.311 263.587 123.496C263.089 123.682 262.644 123.985 262.29 124.38C261.936 124.776 261.683 125.252 261.554 125.766C261.424 126.281 261.422 126.82 261.546 127.336Z" fill="#FFB573"/>
<path opacity="0.2" d="M261.546 127.336C261.712 128.241 262.057 129.105 262.561 129.876C263.064 130.647 263.717 131.309 264.48 131.825C266.544 133.164 268.392 131.463 268.451 129.096C268.529 126.974 267.542 123.707 265.146 123.316C264.619 123.249 264.084 123.311 263.587 123.496C263.089 123.682 262.644 123.985 262.29 124.38C261.936 124.776 261.683 125.252 261.554 125.766C261.424 126.281 261.422 126.82 261.546 127.336Z" fill="black"/>
<path d="M271.62 114.279L266.652 130.612C260.148 118.944 267.454 109.027 271.62 114.279Z" fill="#263238"/>
<path d="M285.371 127.355C282.182 134.201 280.666 138.367 275.737 140.656C268.334 144.108 261.018 137.722 262.114 130.084C263.092 123.238 268.148 113.174 276.05 112.92C277.784 112.85 279.506 113.234 281.046 114.033C282.586 114.832 283.891 116.019 284.832 117.476C285.773 118.934 286.318 120.612 286.412 122.344C286.507 124.077 286.148 125.804 285.371 127.355Z" fill="#FFB573"/>
<path d="M281.009 133.292C277.097 133.771 280.324 123.854 283.718 121.174C279.17 120.568 266.955 119.551 267.542 112.91C268.246 104.861 277.322 107.267 277.322 109.155C279.053 110.397 292.657 109.37 291.327 119.678C297.997 119.961 294.27 131.697 281.009 133.292Z" fill="#263238"/>
<path d="M291.307 119.932H291.239C291.173 119.912 291.118 119.866 291.085 119.806C291.052 119.746 291.044 119.675 291.063 119.609C292.569 114.602 290.769 112.832 289.038 111.844C288.981 111.808 288.94 111.752 288.922 111.687C288.904 111.622 288.91 111.552 288.94 111.492C288.975 111.433 289.031 111.39 289.097 111.372C289.162 111.354 289.232 111.362 289.292 111.394C292.07 112.978 292.794 115.639 291.552 119.766C291.533 119.815 291.5 119.858 291.456 119.888C291.412 119.918 291.36 119.933 291.307 119.932Z" fill="#263238"/>
<path d="M293.508 125.389C293.473 125.391 293.438 125.385 293.406 125.371C293.374 125.358 293.345 125.337 293.322 125.311C293.298 125.287 293.279 125.259 293.266 125.228C293.253 125.197 293.246 125.164 293.246 125.13C293.246 125.097 293.253 125.063 293.266 125.032C293.279 125.001 293.298 124.973 293.322 124.949C294.799 123.619 295.395 122.436 295.053 121.526C294.71 120.617 293.204 119.932 291.287 119.932C291.22 119.932 291.155 119.905 291.108 119.858C291.06 119.81 291.033 119.745 291.033 119.678C291.033 119.61 291.06 119.546 291.108 119.498C291.155 119.45 291.22 119.424 291.287 119.424C293.449 119.424 295.082 120.157 295.532 121.38C295.835 122.162 295.747 123.492 293.664 125.37C293.615 125.392 293.56 125.398 293.508 125.389Z" fill="#263238"/>
<path d="M285.664 135.453C284.155 136.595 282.26 137.1 280.383 136.861C277.918 136.519 277.732 134.064 279.297 132.255C280.696 130.622 283.679 128.832 285.723 130.093C287.767 131.355 287.532 133.986 285.664 135.453Z" fill="#FFB573"/>
<path d="M251.062 215.287C251.062 215.287 248.637 271.698 248.901 294.711C249.165 318.632 255.6 388.452 255.6 388.452H268.383C268.383 388.452 270.74 319.992 271.884 296.52C273.126 270.896 277.586 215.277 277.586 215.277L251.062 215.287Z" fill="#3C2D86"/>
<path opacity="0.4" d="M251.062 215.287C251.062 215.287 248.637 271.698 248.901 294.711C249.165 318.632 255.6 388.452 255.6 388.452H268.383C268.383 388.452 270.74 319.992 271.884 296.52C273.126 270.896 277.586 215.277 277.586 215.277L251.062 215.287Z" fill="white"/>
<path d="M269.322 384.53C269.38 384.53 269.214 388.706 269.214 388.706H254.485L253.987 384.021L269.322 384.53Z" fill="#263238"/>
<path opacity="0.2" d="M268.344 230.221C267.904 258.211 269.175 275.209 272.256 288.901C273.028 275.551 274.29 257.898 275.395 243.228L268.344 230.221Z" fill="black"/>
<path d="M265.38 215.287C265.38 215.287 272.529 272.989 276.696 294.505C281.263 318.163 298.72 388.393 298.72 388.393H312.539C312.539 388.393 301.645 320.109 299.268 296.696C296.706 271.268 291.444 215.287 291.444 215.287H265.38Z" fill="#3C2D86"/>
<path opacity="0.4" d="M265.38 215.287C265.38 215.287 272.529 272.989 276.696 294.505C281.263 318.163 298.72 388.393 298.72 388.393H312.539C312.539 388.393 301.645 320.109 299.268 296.696C296.706 271.268 291.444 215.287 291.444 215.287H265.38Z" fill="white"/>
<path d="M312.627 384.853C312.686 384.853 313.224 388.706 313.224 388.706H298.036L296.803 384.276L312.627 384.853Z" fill="#263238"/>
<path d="M274.065 125.389C273.84 125.957 273.361 126.309 272.989 126.172C272.617 126.035 272.5 125.458 272.725 124.891C272.95 124.323 273.429 123.913 273.801 124.098C274.172 124.284 274.29 124.812 274.065 125.389Z" fill="#263238"/>
<path d="M267.669 123.003C267.444 123.57 266.965 123.922 266.593 123.785C266.221 123.648 266.104 123.071 266.329 122.504C266.554 121.937 267.033 121.585 267.405 121.722C267.776 121.859 267.894 122.436 267.669 123.003Z" fill="#263238"/>
<path d="M269.586 124.049C268.227 125.552 266.675 126.868 264.97 127.961C265.247 128.383 265.614 128.738 266.046 129C266.477 129.262 266.961 129.425 267.464 129.477L269.586 124.049Z" fill="#ED893E"/>
<path d="M268.49 131.629C268.468 131.621 268.448 131.609 268.432 131.594C268.415 131.578 268.401 131.559 268.392 131.538C268.383 131.517 268.378 131.494 268.378 131.471C268.378 131.448 268.383 131.425 268.392 131.404C268.4 131.381 268.412 131.36 268.428 131.342C268.445 131.323 268.464 131.309 268.486 131.299C268.508 131.289 268.532 131.283 268.557 131.283C268.581 131.282 268.605 131.287 268.627 131.296C269.335 131.57 270.096 131.676 270.852 131.604C271.607 131.533 272.335 131.287 272.979 130.886C273.012 130.854 273.056 130.836 273.102 130.836C273.147 130.836 273.191 130.854 273.224 130.886C273.256 130.92 273.274 130.965 273.274 131.013C273.274 131.06 273.256 131.105 273.224 131.14C272.531 131.593 271.74 131.873 270.916 131.958C270.093 132.043 269.261 131.93 268.49 131.629Z" fill="#263238"/>
<path d="M276.774 124.02C276.723 124.003 276.676 123.974 276.639 123.934C276.601 123.895 276.574 123.847 276.559 123.795C276.458 123.356 276.251 122.948 275.956 122.607C275.661 122.266 275.287 122.002 274.867 121.839C274.823 121.826 274.782 121.804 274.746 121.774C274.711 121.745 274.682 121.708 274.661 121.667C274.64 121.626 274.627 121.581 274.624 121.535C274.621 121.489 274.627 121.443 274.642 121.399C274.654 121.354 274.676 121.311 274.705 121.275C274.734 121.238 274.77 121.207 274.811 121.184C274.852 121.161 274.897 121.147 274.943 121.142C274.99 121.137 275.037 121.141 275.082 121.155C275.61 121.345 276.084 121.662 276.461 122.078C276.838 122.494 277.107 122.996 277.244 123.541C277.257 123.586 277.261 123.634 277.256 123.682C277.251 123.729 277.237 123.775 277.215 123.816C277.192 123.858 277.161 123.895 277.124 123.925C277.087 123.955 277.045 123.977 276.999 123.991C276.929 124.025 276.85 124.035 276.774 124.02Z" fill="#263238"/>
<path d="M265.693 119.648C265.648 119.624 265.608 119.591 265.576 119.551C265.515 119.477 265.486 119.382 265.495 119.286C265.504 119.191 265.551 119.103 265.625 119.042C266.055 118.666 266.569 118.399 267.123 118.261C267.678 118.123 268.257 118.119 268.813 118.25C268.901 118.279 268.974 118.341 269.016 118.424C269.058 118.506 269.066 118.602 269.038 118.69C269.009 118.781 268.946 118.857 268.862 118.902C268.778 118.948 268.68 118.959 268.588 118.934C268.147 118.836 267.689 118.845 267.252 118.959C266.815 119.073 266.412 119.289 266.075 119.59C266.023 119.635 265.96 119.664 265.892 119.674C265.825 119.685 265.756 119.676 265.693 119.648Z" fill="#263238"/>
<path d="M288.784 162.103L299.268 158.69C299.268 158.69 308.921 183.277 312.5 184.705C317.39 186.661 327.239 191.825 333.381 193.057C334.085 194.094 335.033 197.282 334.73 198.407C325.928 200.695 308.011 195.864 304.481 192.705C296.432 185.478 288.784 162.103 288.784 162.103Z" fill="#FFB573"/>
<path d="M295.356 149.693C302.466 150.729 310.026 175.463 310.026 175.463L294.828 183.932C294.828 183.932 288.51 172.196 285.468 163.394C282.319 154.279 287.757 148.578 295.356 149.693Z" fill="#263238"/>
<path d="M310.036 172.773L313.879 179.473L295.385 187.306L292.109 180.275L310.036 172.773Z" fill="#3C2D86"/>
<path d="M300.784 399.102C300.271 399.143 299.759 399.004 299.336 398.711C299.198 398.593 299.093 398.44 299.033 398.268C298.973 398.096 298.959 397.912 298.994 397.733C298.997 397.628 299.027 397.526 299.082 397.437C299.137 397.347 299.215 397.274 299.307 397.224C300.148 396.794 302.554 398.29 302.828 398.466C302.857 398.485 302.879 398.512 302.893 398.543C302.907 398.574 302.912 398.609 302.906 398.642C302.897 398.678 302.878 398.71 302.853 398.736C302.827 398.761 302.795 398.78 302.759 398.789C302.115 398.967 301.452 399.072 300.784 399.102ZM299.698 397.537C299.621 397.522 299.541 397.522 299.464 397.537C299.415 397.537 299.366 397.606 299.346 397.743C299.327 397.861 299.337 397.981 299.376 398.094C299.416 398.207 299.483 398.308 299.571 398.388C299.982 398.74 300.96 398.789 302.251 398.525C301.472 398.034 300.605 397.698 299.698 397.537Z" fill="#3C2D86"/>
<path d="M302.72 398.838H302.632C301.869 398.417 300.393 396.765 300.579 395.904C300.606 395.771 300.678 395.652 300.783 395.566C300.888 395.481 301.02 395.434 301.156 395.434C301.292 395.418 301.431 395.43 301.562 395.471C301.693 395.511 301.815 395.579 301.918 395.669C302.769 396.383 302.896 398.554 302.896 398.652C302.897 398.685 302.889 398.717 302.874 398.747C302.858 398.776 302.836 398.8 302.808 398.818C302.781 398.833 302.751 398.84 302.72 398.838ZM301.273 395.777H301.224C300.989 395.777 300.97 395.914 300.96 395.963C300.852 396.461 301.781 397.703 302.544 398.3C302.511 397.446 302.222 396.621 301.713 395.933C301.593 395.825 301.434 395.769 301.273 395.777Z" fill="#3C2D86"/>
<path d="M255.424 399.102C254.782 399.162 254.139 398.996 253.605 398.633C253.485 398.525 253.394 398.389 253.339 398.237C253.285 398.085 253.269 397.922 253.292 397.762C253.3 397.665 253.331 397.571 253.384 397.489C253.437 397.407 253.51 397.34 253.595 397.293C254.525 396.774 257.507 398.271 257.86 398.496C257.893 398.512 257.92 398.54 257.936 398.573C257.952 398.607 257.956 398.645 257.948 398.681C257.943 398.719 257.927 398.754 257.9 398.781C257.873 398.807 257.838 398.824 257.801 398.828C257.019 398.993 256.223 399.085 255.424 399.102ZM254.104 397.537C253.986 397.53 253.868 397.554 253.762 397.606C253.728 397.624 253.699 397.651 253.679 397.683C253.658 397.716 253.646 397.753 253.644 397.792C253.63 397.897 253.641 398.005 253.677 398.105C253.712 398.205 253.772 398.296 253.85 398.369C254.3 398.779 255.542 398.848 257.214 398.574C256.245 398.052 255.193 397.701 254.104 397.537Z" fill="#3C2D86"/>
<path d="M257.772 398.838H257.693C256.794 398.427 255.033 396.794 255.19 395.904C255.19 395.709 255.375 395.454 255.874 395.405C256.049 395.387 256.226 395.404 256.395 395.456C256.563 395.508 256.718 395.594 256.852 395.709C257.83 396.501 257.948 398.535 257.957 398.643C257.957 398.673 257.949 398.702 257.936 398.73C257.922 398.757 257.903 398.78 257.879 398.799C257.847 398.82 257.81 398.834 257.772 398.838ZM256.001 395.777H255.894C255.571 395.777 255.551 395.943 255.542 395.982C255.444 396.491 256.647 397.772 257.556 398.33C257.485 397.473 257.143 396.661 256.578 396.012C256.419 395.869 256.215 395.786 256.001 395.777Z" fill="#3C2D86"/>
<path d="M334.055 198.534L341.244 198.886L337.42 191.062C337.42 191.062 331.131 190.974 330.104 195.805L334.055 198.534Z" fill="#FFB573"/>
<path d="M347.053 195.121L343.249 188.216L337.42 191.081L341.244 198.905L347.053 195.121Z" fill="#FFB573"/>
<path d="M362.132 167.457L361.475 156.925L319.503 159.543L320.16 170.075L362.132 167.457Z" fill="#3C2D86"/>
<path opacity="0.5" d="M362.983 181.055L362.326 170.523L320.354 173.142L321.011 183.674L362.983 181.055Z" fill="white"/>
<path opacity="0.5" d="M362.983 181.055L362.326 170.523L320.354 173.142L321.011 183.674L362.983 181.055Z" fill="#3C2D86"/>
<path d="M326.437 347.738L122.436 331.395C119.876 331.183 117.504 329.967 115.838 328.011C114.173 326.056 113.348 323.521 113.546 320.96L122.406 210.329C122.623 207.773 123.842 205.407 125.797 203.747C127.752 202.087 130.285 201.268 132.842 201.468L336.843 217.801C339.397 218.028 341.759 219.248 343.422 221.2C345.085 223.152 345.915 225.678 345.733 228.236L336.872 338.877C336.638 341.426 335.414 343.781 333.463 345.438C331.512 347.094 328.99 347.92 326.437 347.738Z" fill="#3C2D86"/>
<path opacity="0.4" d="M326.437 347.738L122.436 331.395C119.876 331.183 117.504 329.967 115.838 328.011C114.173 326.056 113.348 323.521 113.546 320.96L122.406 210.329C122.623 207.773 123.842 205.407 125.797 203.747C127.752 202.087 130.285 201.268 132.842 201.468L336.843 217.801C339.397 218.028 341.759 219.248 343.422 221.2C345.085 223.152 345.915 225.678 345.733 228.236L336.872 338.877C336.638 341.426 335.414 343.781 333.463 345.438C331.512 347.094 328.99 347.92 326.437 347.738Z" fill="black"/>
<path d="M322.809 347.444L118.807 331.112C116.254 330.885 113.891 329.664 112.228 327.712C110.565 325.761 109.736 323.234 109.917 320.676L118.778 210.035C119.005 207.481 120.226 205.119 122.177 203.456C124.129 201.793 126.656 200.963 129.213 201.145L333.214 217.478C335.761 217.705 338.118 218.92 339.779 220.863C341.441 222.806 342.276 225.323 342.104 227.874L333.244 338.515C333.027 341.076 331.81 343.449 329.857 345.12C327.904 346.791 325.372 347.626 322.809 347.444Z" fill="#3C2D86"/>
<path d="M330.808 333.938L113.057 316.5C112.63 316.468 112.234 316.267 111.955 315.943C111.676 315.618 111.538 315.196 111.57 314.769L119.169 219.903C119.202 219.477 119.402 219.08 119.727 218.802C120.052 218.523 120.474 218.384 120.9 218.417L338.662 235.854C338.879 235.871 339.09 235.932 339.284 236.032C339.477 236.133 339.648 236.271 339.787 236.439C339.925 236.607 340.029 236.801 340.091 237.01C340.153 237.218 340.173 237.438 340.148 237.654L332.549 332.52C332.5 332.936 332.291 333.317 331.966 333.581C331.641 333.846 331.226 333.974 330.808 333.938Z" fill="white"/>
<path d="M133.243 215.952C133.093 215.962 132.943 215.962 132.793 215.952C131.343 215.893 129.974 215.268 128.979 214.211C127.985 213.155 127.444 211.75 127.474 210.299C127.503 208.848 128.1 207.467 129.137 206.451C130.173 205.435 131.567 204.866 133.018 204.866C134.469 204.866 135.862 205.435 136.899 206.451C137.935 207.467 138.532 208.848 138.562 210.299C138.591 211.75 138.051 213.155 137.056 214.211C136.062 215.268 134.693 215.893 133.243 215.952ZM133.243 205.585C131.979 205.635 130.785 206.179 129.917 207.099C129.05 208.02 128.578 209.244 128.603 210.508C128.628 211.773 129.148 212.977 130.051 213.863C130.954 214.748 132.169 215.244 133.433 215.244C134.698 215.244 135.913 214.748 136.816 213.863C137.719 212.977 138.239 211.773 138.264 210.508C138.289 209.244 137.817 208.02 136.949 207.099C136.082 206.179 134.888 205.635 133.624 205.585H133.243Z" fill="white"/>
<path d="M149.282 217.233H148.832C147.296 217.174 145.845 216.515 144.79 215.398C143.735 214.28 143.161 212.794 143.19 211.257C143.22 209.721 143.851 208.257 144.948 207.181C146.045 206.104 147.52 205.502 149.057 205.502C150.594 205.502 152.069 206.104 153.166 207.181C154.263 208.257 154.894 209.721 154.924 211.257C154.953 212.794 154.379 214.28 153.324 215.398C152.269 216.515 150.818 217.174 149.282 217.233ZM149.282 206.866C148.511 206.866 147.752 207.051 147.068 207.408C146.385 207.764 145.798 208.28 145.357 208.912C144.915 209.543 144.634 210.273 144.535 211.037C144.436 211.801 144.524 212.578 144.79 213.301C145.056 214.024 145.494 214.673 146.064 215.19C146.635 215.708 147.322 216.081 148.068 216.276C148.813 216.471 149.595 216.483 150.346 216.311C151.097 216.138 151.796 215.787 152.382 215.287C152.861 214.882 153.255 214.385 153.541 213.826C153.826 213.267 153.997 212.656 154.045 212.03C154.145 210.767 153.74 209.516 152.918 208.552C152.097 207.587 150.926 206.988 149.663 206.886L149.282 206.866Z" fill="white"/>
<path d="M165.282 218.524H164.832C163.39 218.465 162.028 217.844 161.039 216.792C160.05 215.741 159.513 214.344 159.542 212.9C159.572 211.457 160.166 210.083 161.197 209.073C162.228 208.063 163.614 207.497 165.057 207.497C166.5 207.497 167.886 208.063 168.917 209.073C169.948 210.083 170.542 211.457 170.572 212.9C170.601 214.344 170.064 215.741 169.075 216.792C168.086 217.844 166.724 218.465 165.282 218.524ZM165.282 208.158C164.049 208.207 162.885 208.739 162.04 209.637C161.194 210.535 160.735 211.73 160.76 212.963C160.785 214.196 161.292 215.371 162.173 216.234C163.054 217.098 164.239 217.582 165.473 217.582C166.706 217.582 167.891 217.098 168.772 216.234C169.653 215.371 170.161 214.196 170.186 212.963C170.211 211.73 169.751 210.535 168.906 209.637C168.06 208.739 166.896 208.207 165.663 208.158H165.282Z" fill="white"/>
<path d="M195.342 251.412L196.184 240.893L154.265 237.535L153.422 248.054L195.342 251.412Z" fill="#3C2D86"/>
<path d="M287.82 272.485L288.663 261.966L246.743 258.608L245.9 269.127L287.82 272.485Z" fill="#3C2D86"/>
<path opacity="0.5" d="M239.948 282.326L240.791 271.807L198.871 268.449L198.028 278.968L239.948 282.326Z" fill="#3C2D86"/>
<path opacity="0.5" d="M190.992 305.766L191.835 295.247L149.915 291.889L149.072 302.407L190.992 305.766Z" fill="#3C2D86"/>
<path d="M333.508 289.82L334.351 279.302L292.431 275.943L291.589 286.462L333.508 289.82Z" fill="#3C2D86"/>
<path opacity="0.5" d="M332.416 303.408L333.259 292.889L291.339 289.531L290.496 300.05L332.416 303.408Z" fill="#3C2D86"/>
<path d="M284.553 313.25L285.396 302.731L243.476 299.373L242.634 309.892L284.553 313.25Z" fill="#3C2D86"/>
<path d="M339.073 251.033V250.554L292.53 246.828L293.693 232.285H293.214L292.05 246.828L245.752 243.121L246.916 228.578H246.427L245.263 243.121L198.964 239.414L200.128 224.871H199.649L198.534 239.297L152.235 235.59L153.389 221.028H152.91L151.746 235.571L118.133 232.881V233.361L151.746 236.05L150.612 249.145L117.047 246.456V246.945L150.612 249.625L149.565 262.73L115.952 260.04V260.52L149.565 263.219L148.519 276.324L114.905 273.635V274.114L148.441 276.774L147.385 289.889L113.78 287.19V287.679L147.394 290.368L146.338 303.473L112.724 300.784V301.263L146.328 303.962L145.125 319.033H145.605L146.817 303.953L193.116 307.669L191.903 322.74H192.392L193.595 307.659L239.894 311.366L238.632 326.554H239.111L240.314 311.473L286.613 315.18L285.41 330.261H285.889L287.102 315.18L333.635 318.906V318.427L287.102 314.701L288.148 301.596L334.691 305.322V304.833L288.217 301.224L289.263 288.119L335.806 291.845V291.366L289.263 287.64L290.319 274.525L336.852 278.251V277.772L290.319 274.045L291.366 260.94L337.909 264.666V264.177L291.444 260.412L292.49 247.307L339.073 251.033ZM245.263 243.522L244.216 256.637L197.918 252.93L198.964 239.815L245.263 243.522ZM195.747 280.109L196.793 267.004L243.092 270.71L242.045 283.816L195.747 280.109ZM242.006 284.295L240.95 297.41L194.622 293.693L195.678 280.588L242.006 284.295ZM196.832 266.515L197.879 253.41L244.177 257.116L243.131 270.221L196.832 266.515ZM152.187 236.07L198.534 239.776L197.487 252.891L151.189 249.185L152.187 236.07ZM151.101 249.664L197.399 253.37L196.343 266.476L150.045 262.769L151.101 249.664ZM150.006 263.258L196.304 266.994L195.258 280.099L148.959 276.393L150.006 263.258ZM148.92 276.842L195.219 280.549L194.172 293.664L147.874 289.957L148.92 276.842ZM146.788 303.542L147.834 290.437L194.133 294.143L193.086 307.248L146.788 303.542ZM193.566 307.288L194.622 294.182L240.92 297.889L239.864 311.004L193.566 307.288ZM286.642 314.74L240.343 311.004L241.4 297.899L287.698 301.605L286.642 314.74ZM287.737 301.146L241.439 297.439L242.485 284.334L288.784 288.041L287.737 301.146ZM288.823 287.532L242.544 283.855L243.59 270.749L289.889 274.456L288.823 287.532ZM289.908 273.938L243.61 270.231L244.656 257.126L290.955 260.833L289.908 273.938ZM290.994 260.353L244.696 256.647L245.752 243.522L292.05 247.229L290.994 260.353Z" fill="#E0E0E0"/>
</g>
<defs>
<clipPath id="clip0_60_181">
<rect width="489" height="489" fill="white"/>
</clipPath>
</defs>
</svg>
