<svg width="192" height="91" viewBox="0 0 192 91" fill="none" xmlns="http://www.w3.org/2000/svg">
<mask id="path-1-outside-1_65_2" maskUnits="userSpaceOnUse" x="-0.00561523" y="0.52002" width="192" height="90" fill="black">
<rect fill="white" x="-0.00561523" y="0.52002" width="192" height="90"/>
<path d="M23.4444 33.1C23.4444 36.6934 22.6011 39.3334 20.9144 41.02C19.2277 42.7067 16.6244 43.55 13.1044 43.55C9.62105 43.55 5.91772 43.3667 1.99438 43V35.575C4.85438 35.7584 7.78772 35.85 10.7944 35.85C11.6377 35.85 12.2977 35.6117 12.7744 35.135C13.2877 34.6217 13.5444 33.9434 13.5444 33.1V12.2H6.39438V4.50002H23.4444V33.1Z"/>
<path d="M59.1922 34.75C59.1922 37.5 58.4039 39.6634 56.8272 41.24C55.2872 42.78 53.1422 43.55 50.3922 43.55H37.7422C34.9922 43.55 32.8289 42.78 31.2522 41.24C29.7122 39.6634 28.9422 37.5 28.9422 34.75V22.1C28.9422 19.35 29.7122 17.205 31.2522 15.665C32.8289 14.0884 34.9922 13.3 37.7422 13.3H50.3922C53.1422 13.3 55.2872 14.0884 56.8272 15.665C58.4039 17.205 59.1922 19.35 59.1922 22.1V34.75ZM49.5672 22.925C49.5672 21.4584 48.8339 20.725 47.3672 20.725H40.7672C39.3006 20.725 38.5672 21.4584 38.5672 22.925V33.925C38.5672 35.3917 39.3006 36.125 40.7672 36.125H47.3672C48.8339 36.125 49.5672 35.3917 49.5672 33.925V22.925Z"/>
<path d="M75.6858 35.85C77.6291 35.85 79.8291 35.4834 82.2858 34.75V31.45H74.3108C73.7608 31.45 73.3025 31.6334 72.9358 32C72.5691 32.3667 72.3858 32.825 72.3858 33.375V33.925C72.3858 34.475 72.5691 34.9334 72.9358 35.3C73.3025 35.6667 73.7608 35.85 74.3108 35.85H75.6858ZM65.5108 14.4C72.2208 13.6667 78.2708 13.3 83.6608 13.3C86.1541 13.3 88.1525 14.0517 89.6558 15.555C91.1591 17.0584 91.9108 19.0567 91.9108 21.55V43H83.3858L82.8358 40.25C81.1125 41.3867 79.3341 42.23 77.5008 42.78C75.7041 43.2934 74.1825 43.55 72.9358 43.55H71.0108C68.5175 43.55 66.5191 42.7984 65.0158 41.295C63.5125 39.7917 62.7608 37.7934 62.7608 35.3V32.825C62.7608 30.3317 63.5125 28.3334 65.0158 26.83C66.5191 25.3267 68.5175 24.575 71.0108 24.575H82.2858V22.375C82.2858 21.825 82.1025 21.3667 81.7358 21C81.3691 20.6334 80.9108 20.45 80.3608 20.45C77.9775 20.45 75.3375 20.56 72.4408 20.78C69.5808 21 67.2708 21.165 65.5108 21.275V14.4ZM82.1208 5.27002C83.2941 5.27002 84.2108 4.53669 84.8708 3.07002L88.4458 5.27002C88.1158 6.44335 87.6758 7.47002 87.1258 8.35002C85.8425 10.5134 84.1741 11.595 82.1208 11.595C81.3508 11.595 80.6725 11.4484 80.0858 11.155C79.5358 10.8617 79.0041 10.55 78.4908 10.22C78.0141 9.89002 77.5375 9.57835 77.0608 9.28502C76.5841 8.99169 76.0708 8.84502 75.5208 8.84502C74.3475 8.84502 73.4308 9.57835 72.7708 11.045L69.1958 8.84502C69.7825 6.57169 70.8641 4.79335 72.4408 3.51002C73.2475 2.85002 74.1458 2.52002 75.1358 2.52002C76.1625 2.52002 76.9508 2.66669 77.5008 2.96002C78.0875 3.25335 78.6191 3.56502 79.0958 3.89502C79.6091 4.22502 80.1041 4.53669 80.5808 4.83002C81.0575 5.12335 81.5708 5.27002 82.1208 5.27002Z"/>
<path d="M126.546 34.75C126.546 37.5 125.757 39.6634 124.181 41.24C122.641 42.78 120.496 43.55 117.746 43.55H105.096C102.346 43.55 100.182 42.78 98.6058 41.24C97.0658 39.6634 96.2958 37.5 96.2958 34.75V22.1C96.2958 19.35 97.0658 17.205 98.6058 15.665C100.182 14.0884 102.346 13.3 105.096 13.3H117.746C120.496 13.3 122.641 14.0884 124.181 15.665C125.757 17.205 126.546 19.35 126.546 22.1V34.75ZM116.921 22.925C116.921 21.4584 116.187 20.725 114.721 20.725H108.121C106.654 20.725 105.921 21.4584 105.921 22.925V33.925C105.921 35.3917 106.654 36.125 108.121 36.125H114.721C116.187 36.125 116.921 35.3917 116.921 33.925V22.925Z"/>
<path d="M40.9694 76.45L50.3194 49.5H61.0444L46.4694 88H35.4694L20.8944 49.5H31.6194L40.9694 76.45Z"/>
<path d="M75.3422 59.95V88H65.7172V67.375H61.5922V59.95H75.3422ZM65.7172 48.95H75.3422V56.65H65.7172V48.95Z"/>
<path d="M106.709 87.45C99.8527 88.1834 93.8027 88.55 88.5594 88.55C86.0661 88.55 84.0677 87.7984 82.5644 86.295C81.0611 84.7917 80.3094 82.7934 80.3094 80.3V67.65C80.3094 64.9 81.0794 62.755 82.6194 61.215C84.1961 59.6384 86.3594 58.85 89.1094 58.85H106.709V66.275H92.1344C90.6677 66.275 89.9344 67.0084 89.9344 68.475V79.2C89.9344 79.75 90.1177 80.2084 90.4844 80.575C90.8511 80.9417 91.3094 81.125 91.8594 81.125C95.1594 81.125 100.109 80.85 106.709 80.3V87.45Z"/>
<path d="M131.449 88C127.892 88.3667 124.409 88.55 120.999 88.55C118.505 88.55 116.507 87.7984 115.004 86.295C113.5 84.7917 112.749 82.7934 112.749 80.3V66.275H109.449V58.85H112.749L113.849 52.25H122.374V58.85H129.249V66.275H122.374V78.925C122.374 79.475 122.557 79.9334 122.924 80.3C123.29 80.6667 123.749 80.85 124.299 80.85H131.449V88Z"/>
<path d="M163.948 79.75C163.948 82.5 163.16 84.6634 161.583 86.24C160.043 87.78 157.898 88.55 155.148 88.55H142.498C139.748 88.55 137.585 87.78 136.008 86.24C134.468 84.6634 133.698 82.5 133.698 79.75V67.1C133.698 64.35 134.468 62.205 136.008 60.665C137.585 59.0884 139.748 58.3 142.498 58.3H155.148C157.898 58.3 160.043 59.0884 161.583 60.665C163.16 62.205 163.948 64.35 163.948 67.1V79.75ZM154.323 67.925C154.323 66.4584 153.59 65.725 152.123 65.725H145.523C144.056 65.725 143.323 66.4584 143.323 67.925V78.925C143.323 80.3917 144.056 81.125 145.523 81.125H152.123C153.59 81.125 154.323 80.3917 154.323 78.925V67.925Z"/>
<path d="M185.667 66.825C183.357 66.825 180.973 67.375 178.517 68.475V88H168.892V58.85H177.417L177.967 62.425C181.12 59.675 184.42 58.3 187.867 58.3H190.342V66.825H185.667Z"/>
</mask>
<path d="M23.4444 33.1C23.4444 36.6934 22.6011 39.3334 20.9144 41.02C19.2277 42.7067 16.6244 43.55 13.1044 43.55C9.62105 43.55 5.91772 43.3667 1.99438 43V35.575C4.85438 35.7584 7.78772 35.85 10.7944 35.85C11.6377 35.85 12.2977 35.6117 12.7744 35.135C13.2877 34.6217 13.5444 33.9434 13.5444 33.1V12.2H6.39438V4.50002H23.4444V33.1Z" fill="#20135A"/>
<path d="M59.1922 34.75C59.1922 37.5 58.4039 39.6634 56.8272 41.24C55.2872 42.78 53.1422 43.55 50.3922 43.55H37.7422C34.9922 43.55 32.8289 42.78 31.2522 41.24C29.7122 39.6634 28.9422 37.5 28.9422 34.75V22.1C28.9422 19.35 29.7122 17.205 31.2522 15.665C32.8289 14.0884 34.9922 13.3 37.7422 13.3H50.3922C53.1422 13.3 55.2872 14.0884 56.8272 15.665C58.4039 17.205 59.1922 19.35 59.1922 22.1V34.75ZM49.5672 22.925C49.5672 21.4584 48.8339 20.725 47.3672 20.725H40.7672C39.3006 20.725 38.5672 21.4584 38.5672 22.925V33.925C38.5672 35.3917 39.3006 36.125 40.7672 36.125H47.3672C48.8339 36.125 49.5672 35.3917 49.5672 33.925V22.925Z" fill="#20135A"/>
<path d="M75.6858 35.85C77.6291 35.85 79.8291 35.4834 82.2858 34.75V31.45H74.3108C73.7608 31.45 73.3025 31.6334 72.9358 32C72.5691 32.3667 72.3858 32.825 72.3858 33.375V33.925C72.3858 34.475 72.5691 34.9334 72.9358 35.3C73.3025 35.6667 73.7608 35.85 74.3108 35.85H75.6858ZM65.5108 14.4C72.2208 13.6667 78.2708 13.3 83.6608 13.3C86.1541 13.3 88.1525 14.0517 89.6558 15.555C91.1591 17.0584 91.9108 19.0567 91.9108 21.55V43H83.3858L82.8358 40.25C81.1125 41.3867 79.3341 42.23 77.5008 42.78C75.7041 43.2934 74.1825 43.55 72.9358 43.55H71.0108C68.5175 43.55 66.5191 42.7984 65.0158 41.295C63.5125 39.7917 62.7608 37.7934 62.7608 35.3V32.825C62.7608 30.3317 63.5125 28.3334 65.0158 26.83C66.5191 25.3267 68.5175 24.575 71.0108 24.575H82.2858V22.375C82.2858 21.825 82.1025 21.3667 81.7358 21C81.3691 20.6334 80.9108 20.45 80.3608 20.45C77.9775 20.45 75.3375 20.56 72.4408 20.78C69.5808 21 67.2708 21.165 65.5108 21.275V14.4ZM82.1208 5.27002C83.2941 5.27002 84.2108 4.53669 84.8708 3.07002L88.4458 5.27002C88.1158 6.44335 87.6758 7.47002 87.1258 8.35002C85.8425 10.5134 84.1741 11.595 82.1208 11.595C81.3508 11.595 80.6725 11.4484 80.0858 11.155C79.5358 10.8617 79.0041 10.55 78.4908 10.22C78.0141 9.89002 77.5375 9.57835 77.0608 9.28502C76.5841 8.99169 76.0708 8.84502 75.5208 8.84502C74.3475 8.84502 73.4308 9.57835 72.7708 11.045L69.1958 8.84502C69.7825 6.57169 70.8641 4.79335 72.4408 3.51002C73.2475 2.85002 74.1458 2.52002 75.1358 2.52002C76.1625 2.52002 76.9508 2.66669 77.5008 2.96002C78.0875 3.25335 78.6191 3.56502 79.0958 3.89502C79.6091 4.22502 80.1041 4.53669 80.5808 4.83002C81.0575 5.12335 81.5708 5.27002 82.1208 5.27002Z" fill="#20135A"/>
<path d="M126.546 34.75C126.546 37.5 125.757 39.6634 124.181 41.24C122.641 42.78 120.496 43.55 117.746 43.55H105.096C102.346 43.55 100.182 42.78 98.6058 41.24C97.0658 39.6634 96.2958 37.5 96.2958 34.75V22.1C96.2958 19.35 97.0658 17.205 98.6058 15.665C100.182 14.0884 102.346 13.3 105.096 13.3H117.746C120.496 13.3 122.641 14.0884 124.181 15.665C125.757 17.205 126.546 19.35 126.546 22.1V34.75ZM116.921 22.925C116.921 21.4584 116.187 20.725 114.721 20.725H108.121C106.654 20.725 105.921 21.4584 105.921 22.925V33.925C105.921 35.3917 106.654 36.125 108.121 36.125H114.721C116.187 36.125 116.921 35.3917 116.921 33.925V22.925Z" fill="#20135A"/>
<path d="M40.9694 76.45L50.3194 49.5H61.0444L46.4694 88H35.4694L20.8944 49.5H31.6194L40.9694 76.45Z" fill="white"/>
<path d="M75.3422 59.95V88H65.7172V67.375H61.5922V59.95H75.3422ZM65.7172 48.95H75.3422V56.65H65.7172V48.95Z" fill="white"/>
<path d="M106.709 87.45C99.8527 88.1834 93.8027 88.55 88.5594 88.55C86.0661 88.55 84.0677 87.7984 82.5644 86.295C81.0611 84.7917 80.3094 82.7934 80.3094 80.3V67.65C80.3094 64.9 81.0794 62.755 82.6194 61.215C84.1961 59.6384 86.3594 58.85 89.1094 58.85H106.709V66.275H92.1344C90.6677 66.275 89.9344 67.0084 89.9344 68.475V79.2C89.9344 79.75 90.1177 80.2084 90.4844 80.575C90.8511 80.9417 91.3094 81.125 91.8594 81.125C95.1594 81.125 100.109 80.85 106.709 80.3V87.45Z" fill="white"/>
<path d="M131.449 88C127.892 88.3667 124.409 88.55 120.999 88.55C118.505 88.55 116.507 87.7984 115.004 86.295C113.5 84.7917 112.749 82.7934 112.749 80.3V66.275H109.449V58.85H112.749L113.849 52.25H122.374V58.85H129.249V66.275H122.374V78.925C122.374 79.475 122.557 79.9334 122.924 80.3C123.29 80.6667 123.749 80.85 124.299 80.85H131.449V88Z" fill="white"/>
<path d="M163.948 79.75C163.948 82.5 163.16 84.6634 161.583 86.24C160.043 87.78 157.898 88.55 155.148 88.55H142.498C139.748 88.55 137.585 87.78 136.008 86.24C134.468 84.6634 133.698 82.5 133.698 79.75V67.1C133.698 64.35 134.468 62.205 136.008 60.665C137.585 59.0884 139.748 58.3 142.498 58.3H155.148C157.898 58.3 160.043 59.0884 161.583 60.665C163.16 62.205 163.948 64.35 163.948 67.1V79.75ZM154.323 67.925C154.323 66.4584 153.59 65.725 152.123 65.725H145.523C144.056 65.725 143.323 66.4584 143.323 67.925V78.925C143.323 80.3917 144.056 81.125 145.523 81.125H152.123C153.59 81.125 154.323 80.3917 154.323 78.925V67.925Z" fill="white"/>
<path d="M185.667 66.825C183.357 66.825 180.973 67.375 178.517 68.475V88H168.892V58.85H177.417L177.967 62.425C181.12 59.675 184.42 58.3 187.867 58.3H190.342V66.825H185.667Z" fill="white"/>
<path d="M20.9144 41.02L19.8537 39.9594L19.8537 39.9594L20.9144 41.02ZM1.99438 43H0.494385V44.3664L1.85481 44.4935L1.99438 43ZM1.99438 35.575L2.09034 34.0781L0.494385 33.9758L0.494385 35.575H1.99438ZM12.7744 35.135L13.835 36.1957L13.835 36.1957L12.7744 35.135ZM13.5444 12.2H15.0444V10.7H13.5444V12.2ZM6.39438 12.2H4.89438V13.7H6.39438V12.2ZM6.39438 4.50002V3.00002H4.89438V4.50002H6.39438ZM23.4444 4.50002H24.9444V3.00002H23.4444V4.50002ZM56.8272 41.24L57.8879 42.3007L57.8879 42.3007L56.8272 41.24ZM31.2522 41.24L30.1792 42.2881L30.1915 42.3008L30.2041 42.3131L31.2522 41.24ZM31.2522 15.665L32.3129 16.7257L32.3129 16.7257L31.2522 15.665ZM56.8272 15.665L55.7542 16.7131L55.7665 16.7258L55.7791 16.7381L56.8272 15.665ZM82.2858 34.75L82.7148 36.1874L83.7858 35.8677V34.75H82.2858ZM82.2858 31.45H83.7858V29.95H82.2858V31.45ZM72.9358 32L73.9965 33.0607L73.9965 33.0607L72.9358 32ZM72.9358 35.3L71.8751 36.3607L71.8751 36.3607L72.9358 35.3ZM65.5108 14.4L65.3478 12.9089L64.0108 13.055V14.4H65.5108ZM89.6558 15.555L88.5951 16.6157L88.5951 16.6157L89.6558 15.555ZM91.9108 43V44.5H93.4108V43H91.9108ZM83.3858 43L81.9149 43.2942L82.1561 44.5H83.3858V43ZM82.8358 40.25L84.3067 39.9559L83.8697 37.7712L82.0099 38.9979L82.8358 40.25ZM77.5008 42.78L77.9129 44.2223L77.9224 44.2196L77.9318 44.2168L77.5008 42.78ZM65.0158 41.295L63.9551 42.3557L63.9551 42.3557L65.0158 41.295ZM65.0158 26.83L66.0765 27.8907L66.0765 27.8907L65.0158 26.83ZM82.2858 24.575V26.075H83.7858V24.575H82.2858ZM81.7358 21L80.6751 22.0607L80.6751 22.0607L81.7358 21ZM72.4408 20.78L72.3272 19.2843L72.3257 19.2844L72.4408 20.78ZM65.5108 21.275H64.0108V22.8717L65.6044 22.7721L65.5108 21.275ZM84.8708 3.07002L85.6569 1.79253L84.2033 0.898004L83.5029 2.45447L84.8708 3.07002ZM88.4458 5.27002L89.8898 5.67614L90.1964 4.58602L89.2319 3.99253L88.4458 5.27002ZM87.1258 8.35002L85.8538 7.55502L85.8446 7.56976L85.8357 7.58472L87.1258 8.35002ZM80.0858 11.155L79.3799 12.4786L79.3973 12.4878L79.415 12.4967L80.0858 11.155ZM78.4908 10.22L77.637 11.4533L77.6581 11.4679L77.6797 11.4818L78.4908 10.22ZM77.0608 9.28502L77.8469 8.00753L77.8469 8.00753L77.0608 9.28502ZM72.7708 11.045L71.9846 12.3225L73.4383 13.217L74.1387 11.6606L72.7708 11.045ZM69.1958 8.84502L67.7434 8.4702L67.4667 9.54224L68.4096 10.1225L69.1958 8.84502ZM72.4408 3.51002L73.3877 4.67337L73.3906 4.67096L72.4408 3.51002ZM77.5008 2.96002L76.7949 4.28355L76.8123 4.29284L76.83 4.30166L77.5008 2.96002ZM79.0958 3.89502L78.242 5.12831L78.2631 5.14291L78.2847 5.15679L79.0958 3.89502ZM80.5808 4.83002L79.7946 6.10751L79.7946 6.10751L80.5808 4.83002ZM124.181 41.24L125.241 42.3007L125.241 42.3007L124.181 41.24ZM98.6058 41.24L97.5327 42.2881L97.545 42.3008L97.5576 42.3131L98.6058 41.24ZM98.6058 15.665L99.6664 16.7257L99.6664 16.7257L98.6058 15.665ZM124.181 15.665L123.108 16.7131L123.12 16.7258L123.133 16.7381L124.181 15.665ZM40.9694 76.45L39.5522 76.9417L40.9694 81.0264L42.3865 76.9417L40.9694 76.45ZM50.3194 49.5V48H49.2521L48.9022 49.0084L50.3194 49.5ZM61.0444 49.5L62.4472 50.0311L63.2161 48H61.0444V49.5ZM46.4694 88V89.5H47.5054L47.8722 88.5311L46.4694 88ZM35.4694 88L34.0665 88.5311L34.4333 89.5H35.4694V88ZM20.8944 49.5V48H18.7226L19.4915 50.0311L20.8944 49.5ZM31.6194 49.5L33.0365 49.0084L32.6867 48H31.6194V49.5ZM75.3422 59.95H76.8422V58.45H75.3422V59.95ZM75.3422 88V89.5H76.8422V88H75.3422ZM65.7172 88H64.2172V89.5H65.7172V88ZM65.7172 67.375H67.2172V65.875H65.7172V67.375ZM61.5922 67.375H60.0922V68.875H61.5922V67.375ZM61.5922 59.95V58.45H60.0922V59.95H61.5922ZM65.7172 48.95V47.45H64.2172V48.95H65.7172ZM75.3422 48.95H76.8422V47.45H75.3422V48.95ZM75.3422 56.65V58.15H76.8422V56.65H75.3422ZM65.7172 56.65H64.2172V58.15H65.7172V56.65ZM106.709 87.45L106.869 88.9415L108.209 88.7981V87.45H106.709ZM82.5644 86.295L81.5037 87.3557L81.5037 87.3557L82.5644 86.295ZM82.6194 61.215L83.6801 62.2757L83.6801 62.2757L82.6194 61.215ZM106.709 58.85H108.209V57.35H106.709V58.85ZM106.709 66.275V67.775H108.209V66.275H106.709ZM106.709 80.3H108.209V78.6698L106.585 78.8052L106.709 80.3ZM131.449 88L131.602 89.4921L132.949 89.3533V88H131.449ZM115.004 86.295L116.064 85.2344L116.064 85.2344L115.004 86.295ZM112.749 66.275H114.249V64.775H112.749V66.275ZM109.449 66.275H107.949V67.775H109.449V66.275ZM109.449 58.85V57.35H107.949V58.85H109.449ZM112.749 58.85V60.35H114.019L114.228 59.0966L112.749 58.85ZM113.849 52.25V50.75H112.578L112.369 52.0034L113.849 52.25ZM122.374 52.25H123.874V50.75H122.374V52.25ZM122.374 58.85H120.874V60.35H122.374V58.85ZM129.249 58.85H130.749V57.35H129.249V58.85ZM129.249 66.275V67.775H130.749V66.275H129.249ZM122.374 66.275V64.775H120.874V66.275H122.374ZM122.924 80.3L121.863 81.3607L121.863 81.3607L122.924 80.3ZM131.449 80.85H132.949V79.35H131.449V80.85ZM161.583 86.24L162.644 87.3007L162.644 87.3007L161.583 86.24ZM136.008 86.24L134.935 87.2881L134.947 87.3008L134.96 87.3131L136.008 86.24ZM136.008 60.665L137.069 61.7257L137.069 61.7257L136.008 60.665ZM161.583 60.665L160.51 61.7131L160.522 61.7258L160.535 61.7381L161.583 60.665ZM178.517 68.475L177.904 67.106L177.017 67.5032V68.475H178.517ZM178.517 88V89.5H180.017V88H178.517ZM168.892 88H167.392V89.5H168.892V88ZM168.892 58.85V57.35H167.392V58.85H168.892ZM177.417 58.85L178.899 58.6219L178.704 57.35H177.417V58.85ZM177.967 62.425L176.484 62.6531L176.899 65.3468L178.953 63.5555L177.967 62.425ZM190.342 58.3H191.842V56.8H190.342V58.3ZM190.342 66.825V68.325H191.842V66.825H190.342ZM21.9444 33.1C21.9444 36.4943 21.1443 38.6688 19.8537 39.9594L21.975 42.0807C24.0578 39.9979 24.9444 36.8924 24.9444 33.1H21.9444ZM19.8537 39.9594C18.5582 41.2549 16.4148 42.05 13.1044 42.05V45.05C16.834 45.05 19.8973 44.1585 21.975 42.0807L19.8537 39.9594ZM13.1044 42.05C9.67322 42.05 6.0168 41.8694 2.13396 41.5065L1.85481 44.4935C5.81864 44.864 9.56888 45.05 13.1044 45.05V42.05ZM3.49438 43V35.575H0.494385V43H3.49438ZM1.89843 37.072C4.79189 37.2574 7.75726 37.35 10.7944 37.35V34.35C7.81817 34.35 4.91688 34.2593 2.09034 34.0781L1.89843 37.072ZM10.7944 37.35C11.9301 37.35 13.0104 37.0203 13.835 36.1957L11.7137 34.0744C11.5851 34.203 11.3454 34.35 10.7944 34.35V37.35ZM13.835 36.1957C14.6753 35.3554 15.0444 34.2716 15.0444 33.1H12.0444C12.0444 33.6151 11.9001 33.888 11.7137 34.0744L13.835 36.1957ZM15.0444 33.1V12.2H12.0444V33.1H15.0444ZM13.5444 10.7H6.39438V13.7H13.5444V10.7ZM7.89438 12.2V4.50002H4.89438V12.2H7.89438ZM6.39438 6.00002H23.4444V3.00002H6.39438V6.00002ZM21.9444 4.50002V33.1H24.9444V4.50002H21.9444ZM57.6922 34.75C57.6922 37.2007 56.9992 38.9467 55.7666 40.1794L57.8879 42.3007C59.8086 40.38 60.6922 37.7994 60.6922 34.75H57.6922ZM55.7666 40.1794C54.5771 41.3688 52.8544 42.05 50.3922 42.05V45.05C53.43 45.05 55.9973 44.1913 57.8879 42.3007L55.7666 40.1794ZM50.3922 42.05H37.7422V45.05H50.3922V42.05ZM37.7422 42.05C35.2818 42.05 33.5313 41.3693 32.3003 40.167L30.2041 42.3131C32.1265 44.1907 34.7027 45.05 37.7422 45.05V42.05ZM32.3253 40.1919C31.123 38.9609 30.4422 37.2105 30.4422 34.75H27.4422C27.4422 37.7895 28.3015 40.3658 30.1792 42.2881L32.3253 40.1919ZM30.4422 34.75V22.1H27.4422V34.75H30.4422ZM30.4422 22.1C30.4422 19.6378 31.1235 17.9151 32.3129 16.7257L30.1916 14.6044C28.301 16.4949 27.4422 19.0622 27.4422 22.1H30.4422ZM32.3129 16.7257C33.5455 15.493 35.2916 14.8 37.7422 14.8V11.8C34.6929 11.8 32.1123 12.6837 30.1916 14.6044L32.3129 16.7257ZM37.7422 14.8H50.3922V11.8H37.7422V14.8ZM50.3922 14.8C52.8445 14.8 54.5629 15.4935 55.7542 16.7131L57.9003 14.6169C56.0116 12.6833 53.44 11.8 50.3922 11.8V14.8ZM55.7791 16.7381C56.9988 17.9294 57.6922 19.6478 57.6922 22.1H60.6922C60.6922 19.0522 59.809 16.4806 57.8753 14.592L55.7791 16.7381ZM57.6922 22.1V34.75H60.6922V22.1H57.6922ZM51.0672 22.925C51.0672 21.9605 50.8251 20.9615 50.0779 20.2144C49.3307 19.4672 48.3318 19.225 47.3672 19.225V22.225C47.6134 22.225 47.7677 22.2563 47.8554 22.2855C47.9358 22.3124 47.9565 22.3356 47.9566 22.3357C47.9567 22.3358 47.9799 22.3564 48.0067 22.4369C48.0359 22.5246 48.0672 22.6789 48.0672 22.925H51.0672ZM47.3672 19.225H40.7672V22.225H47.3672V19.225ZM40.7672 19.225C39.8027 19.225 38.8038 19.4672 38.0566 20.2144C37.3094 20.9615 37.0672 21.9605 37.0672 22.925H40.0672C40.0672 22.6789 40.0985 22.5246 40.1278 22.4369C40.1546 22.3564 40.1778 22.3358 40.1779 22.3357C40.178 22.3356 40.1986 22.3124 40.2791 22.2855C40.3668 22.2563 40.5211 22.225 40.7672 22.225V19.225ZM37.0672 22.925V33.925H40.0672V22.925H37.0672ZM37.0672 33.925C37.0672 34.8896 37.3094 35.8885 38.0566 36.6357C38.8038 37.3829 39.8027 37.625 40.7672 37.625V34.625C40.5211 34.625 40.3668 34.5937 40.2791 34.5645C40.1986 34.5377 40.178 34.5145 40.1779 34.5144C40.1778 34.5143 40.1546 34.4936 40.1278 34.4132C40.0985 34.3255 40.0672 34.1712 40.0672 33.925H37.0672ZM40.7672 37.625H47.3672V34.625H40.7672V37.625ZM47.3672 37.625C48.3318 37.625 49.3307 37.3829 50.0779 36.6357C50.8251 35.8885 51.0672 34.8896 51.0672 33.925H48.0672C48.0672 34.1712 48.0359 34.3255 48.0067 34.4132C47.9799 34.4936 47.9567 34.5143 47.9566 34.5144C47.9565 34.5145 47.9358 34.5377 47.8554 34.5645C47.7677 34.5937 47.6134 34.625 47.3672 34.625V37.625ZM51.0672 33.925V22.925H48.0672V33.925H51.0672ZM75.6858 37.35C77.8123 37.35 80.1606 36.9498 82.7148 36.1874L81.8567 33.3127C79.4977 34.0169 77.446 34.35 75.6858 34.35V37.35ZM83.7858 34.75V31.45H80.7858V34.75H83.7858ZM82.2858 29.95H74.3108V32.95H82.2858V29.95ZM74.3108 29.95C73.3897 29.95 72.5415 30.273 71.8751 30.9394L73.9965 33.0607C74.0634 32.9937 74.1318 32.95 74.3108 32.95V29.95ZM71.8751 30.9394C71.2088 31.6057 70.8858 32.454 70.8858 33.375H73.8858C73.8858 33.1961 73.9295 33.1277 73.9965 33.0607L71.8751 30.9394ZM70.8858 33.375V33.925H73.8858V33.375H70.8858ZM70.8858 33.925C70.8858 34.8461 71.2088 35.6943 71.8751 36.3607L73.9965 34.2394C73.9295 34.1724 73.8858 34.104 73.8858 33.925H70.8858ZM71.8751 36.3607C72.5415 37.027 73.3897 37.35 74.3108 37.35V34.35C74.1318 34.35 74.0634 34.3063 73.9965 34.2394L71.8751 36.3607ZM74.3108 37.35H75.6858V34.35H74.3108V37.35ZM65.6738 15.8911C72.3425 15.1623 78.3368 14.8 83.6608 14.8V11.8C78.2048 11.8 72.0991 12.1711 65.3478 12.9089L65.6738 15.8911ZM83.6608 14.8C85.8304 14.8 87.4215 15.442 88.5951 16.6157L90.7165 14.4944C88.8834 12.6613 86.4779 11.8 83.6608 11.8V14.8ZM88.5951 16.6157C89.7688 17.7893 90.4108 19.3804 90.4108 21.55H93.4108C93.4108 18.733 92.5495 16.3274 90.7165 14.4944L88.5951 16.6157ZM90.4108 21.55V43H93.4108V21.55H90.4108ZM91.9108 41.5H83.3858V44.5H91.9108V41.5ZM84.8567 42.7059L84.3067 39.9559L81.3649 40.5442L81.9149 43.2942L84.8567 42.7059ZM82.0099 38.9979C80.399 40.0604 78.7527 40.8384 77.0698 41.3433L77.9318 44.2168C79.9156 43.6216 81.826 42.713 83.6617 41.5022L82.0099 38.9979ZM77.0887 41.3377C75.3664 41.8298 73.9923 42.05 72.9358 42.05V45.05C74.3726 45.05 76.0419 44.7569 77.9129 44.2223L77.0887 41.3377ZM72.9358 42.05H71.0108V45.05H72.9358V42.05ZM71.0108 42.05C68.8412 42.05 67.2501 41.408 66.0765 40.2344L63.9551 42.3557C65.7882 44.1887 68.1937 45.05 71.0108 45.05V42.05ZM66.0765 40.2344C64.9028 39.0607 64.2608 37.4696 64.2608 35.3H61.2608C61.2608 38.1171 62.1221 40.5227 63.9551 42.3557L66.0765 40.2344ZM64.2608 35.3V32.825H61.2608V35.3H64.2608ZM64.2608 32.825C64.2608 30.6554 64.9028 29.0643 66.0765 27.8907L63.9551 25.7694C62.1221 27.6024 61.2608 30.008 61.2608 32.825H64.2608ZM66.0765 27.8907C67.2501 26.717 68.8412 26.075 71.0108 26.075V23.075C68.1937 23.075 65.7882 23.9363 63.9551 25.7694L66.0765 27.8907ZM71.0108 26.075H82.2858V23.075H71.0108V26.075ZM83.7858 24.575V22.375H80.7858V24.575H83.7858ZM83.7858 22.375C83.7858 21.454 83.4628 20.6057 82.7965 19.9394L80.6751 22.0607C80.7421 22.1277 80.7858 22.1961 80.7858 22.375H83.7858ZM82.7965 19.9394C82.1301 19.273 81.2818 18.95 80.3608 18.95V21.95C80.5398 21.95 80.6082 21.9937 80.6751 22.0607L82.7965 19.9394ZM80.3608 18.95C77.9324 18.95 75.2538 19.0621 72.3272 19.2843L72.5544 22.2757C75.4211 22.058 78.0225 21.95 80.3608 21.95V18.95ZM72.3257 19.2844C69.4691 19.5042 67.1671 19.6686 65.4172 19.7779L65.6044 22.7721C67.3745 22.6615 69.6925 22.4959 72.5558 22.2756L72.3257 19.2844ZM67.0108 21.275V14.4H64.0108V21.275H67.0108ZM82.1208 6.77002C84.1053 6.77002 85.4424 5.45498 86.2387 3.68557L83.5029 2.45447C82.9791 3.61839 82.4829 3.77002 82.1208 3.77002V6.77002ZM84.0846 4.34751L87.6596 6.54751L89.2319 3.99253L85.6569 1.79253L84.0846 4.34751ZM87.0018 4.8639C86.7038 5.92335 86.3165 6.81472 85.8538 7.55502L88.3978 9.14502C89.0351 8.12532 89.5277 6.96336 89.8898 5.67614L87.0018 4.8639ZM85.8357 7.58472C84.7516 9.41215 83.5189 10.095 82.1208 10.095V13.095C84.8293 13.095 86.9333 11.6146 88.4159 9.11532L85.8357 7.58472ZM82.1208 10.095C81.5433 10.095 81.1017 9.98591 80.7566 9.81338L79.415 12.4967C80.2432 12.9108 81.1583 13.095 82.1208 13.095V10.095ZM80.7917 9.83149C80.2768 9.5569 79.7803 9.26578 79.3019 8.95825L77.6797 11.4818C78.2279 11.8343 78.7948 12.1665 79.3799 12.4786L80.7917 9.83149ZM79.3446 8.98673C78.8466 8.64194 78.3474 8.31548 77.8469 8.00753L76.2746 10.5625C76.7276 10.8412 77.1817 11.1381 77.637 11.4533L79.3446 8.98673ZM77.8469 8.00753C77.1383 7.57142 76.3535 7.34502 75.5208 7.34502V10.345C75.7881 10.345 76.03 10.412 76.2746 10.5625L77.8469 8.00753ZM75.5208 7.34502C73.5363 7.34502 72.1991 8.66006 71.4029 10.4295L74.1387 11.6606C74.6624 10.4966 75.1586 10.345 75.5208 10.345V7.34502ZM73.5569 9.76753L69.9819 7.56753L68.4096 10.1225L71.9846 12.3225L73.5569 9.76753ZM70.6482 9.21984C71.1677 7.2067 72.0966 5.72429 73.3877 4.67336L71.4939 2.34668C69.6317 3.86242 68.3972 5.93668 67.7434 8.4702L70.6482 9.21984ZM73.3906 4.67096C73.9446 4.21772 74.5113 4.02002 75.1358 4.02002V1.02002C73.7803 1.02002 72.5503 1.48232 71.4909 2.34908L73.3906 4.67096ZM75.1358 4.02002C76.0574 4.02002 76.5596 4.15803 76.7949 4.28355L78.2067 1.63649C77.342 1.17534 76.2676 1.02002 75.1358 1.02002V4.02002ZM76.83 4.30166C77.3613 4.5673 77.8307 4.84356 78.242 5.12831L79.9496 2.66173C79.4076 2.28649 78.8137 1.93941 78.1716 1.61838L76.83 4.30166ZM78.2847 5.15679C78.8055 5.49164 79.3089 5.80858 79.7946 6.10751L81.3669 3.55254C80.8994 3.2648 80.4127 2.95841 79.9069 2.63325L78.2847 5.15679ZM79.7946 6.10751C80.5033 6.54362 81.2881 6.77002 82.1208 6.77002V3.77002C81.8535 3.77002 81.6116 3.70309 81.3669 3.55253L79.7946 6.10751ZM125.046 34.75C125.046 37.2007 124.353 38.9467 123.12 40.1794L125.241 42.3007C127.162 40.38 128.046 37.7994 128.046 34.75H125.046ZM123.12 40.1794C121.931 41.3688 120.208 42.05 117.746 42.05V45.05C120.784 45.05 123.351 44.1913 125.241 42.3007L123.12 40.1794ZM117.746 42.05H105.096V45.05H117.746V42.05ZM105.096 42.05C102.635 42.05 100.885 41.3693 99.6539 40.167L97.5576 42.3131C99.48 44.1907 102.056 45.05 105.096 45.05V42.05ZM99.6788 40.1919C98.4765 38.9609 97.7958 37.2105 97.7958 34.75H94.7958C94.7958 37.7895 95.655 40.3658 97.5327 42.2881L99.6788 40.1919ZM97.7958 34.75V22.1H94.7958V34.75H97.7958ZM97.7958 22.1C97.7958 19.6378 98.477 17.9151 99.6664 16.7257L97.5451 14.6044C95.6545 16.4949 94.7958 19.0622 94.7958 22.1H97.7958ZM99.6664 16.7257C100.899 15.493 102.645 14.8 105.096 14.8V11.8C102.046 11.8 99.4658 12.6837 97.5451 14.6044L99.6664 16.7257ZM105.096 14.8H117.746V11.8H105.096V14.8ZM117.746 14.8C120.198 14.8 121.916 15.4935 123.108 16.7131L125.254 14.6169C123.365 12.6833 120.794 11.8 117.746 11.8V14.8ZM123.133 16.7381C124.352 17.9294 125.046 19.6478 125.046 22.1H128.046C128.046 19.0522 127.163 16.4806 125.229 14.592L123.133 16.7381ZM125.046 22.1V34.75H128.046V22.1H125.046ZM118.421 22.925C118.421 21.9605 118.179 20.9615 117.431 20.2144C116.684 19.4672 115.685 19.225 114.721 19.225V22.225C114.967 22.225 115.121 22.2563 115.209 22.2855C115.289 22.3124 115.31 22.3356 115.31 22.3357C115.31 22.3358 115.333 22.3564 115.36 22.4369C115.389 22.5246 115.421 22.6789 115.421 22.925H118.421ZM114.721 19.225H108.121V22.225H114.721V19.225ZM108.121 19.225C107.156 19.225 106.157 19.4672 105.41 20.2144C104.663 20.9615 104.421 21.9605 104.421 22.925H107.421C107.421 22.6789 107.452 22.5246 107.481 22.4369C107.508 22.3564 107.531 22.3358 107.531 22.3357C107.532 22.3356 107.552 22.3124 107.633 22.2855C107.72 22.2563 107.875 22.225 108.121 22.225V19.225ZM104.421 22.925V33.925H107.421V22.925H104.421ZM104.421 33.925C104.421 34.8896 104.663 35.8885 105.41 36.6357C106.157 37.3829 107.156 37.625 108.121 37.625V34.625C107.875 34.625 107.72 34.5937 107.633 34.5645C107.552 34.5377 107.532 34.5145 107.531 34.5144C107.531 34.5143 107.508 34.4936 107.481 34.4132C107.452 34.3255 107.421 34.1712 107.421 33.925H104.421ZM108.121 37.625H114.721V34.625H108.121V37.625ZM114.721 37.625C115.685 37.625 116.684 37.3829 117.431 36.6357C118.179 35.8885 118.421 34.8896 118.421 33.925H115.421C115.421 34.1712 115.389 34.3255 115.36 34.4132C115.333 34.4936 115.31 34.5143 115.31 34.5144C115.31 34.5145 115.289 34.5377 115.209 34.5645C115.121 34.5937 114.967 34.625 114.721 34.625V37.625ZM118.421 33.925V22.925H115.421V33.925H118.421ZM42.3865 76.9417L51.7365 49.9917L48.9022 49.0084L39.5522 75.9584L42.3865 76.9417ZM50.3194 51H61.0444V48H50.3194V51ZM59.6415 48.9689L45.0665 87.4689L47.8722 88.5311L62.4472 50.0311L59.6415 48.9689ZM46.4694 86.5H35.4694V89.5H46.4694V86.5ZM36.8722 87.4689L22.2972 48.9689L19.4915 50.0311L34.0665 88.5311L36.8722 87.4689ZM20.8944 51H31.6194V48H20.8944V51ZM30.2022 49.9917L39.5522 76.9417L42.3865 75.9584L33.0365 49.0084L30.2022 49.9917ZM73.8422 59.95V88H76.8422V59.95H73.8422ZM75.3422 86.5H65.7172V89.5H75.3422V86.5ZM67.2172 88V67.375H64.2172V88H67.2172ZM65.7172 65.875H61.5922V68.875H65.7172V65.875ZM63.0922 67.375V59.95H60.0922V67.375H63.0922ZM61.5922 61.45H75.3422V58.45H61.5922V61.45ZM65.7172 50.45H75.3422V47.45H65.7172V50.45ZM73.8422 48.95V56.65H76.8422V48.95H73.8422ZM75.3422 55.15H65.7172V58.15H75.3422V55.15ZM67.2172 56.65V48.95H64.2172V56.65H67.2172ZM106.55 85.9585C99.7308 86.6878 93.7359 87.05 88.5594 87.05V90.05C93.8696 90.05 99.9747 89.6789 106.869 88.9415L106.55 85.9585ZM88.5594 87.05C86.3898 87.05 84.7987 86.408 83.6251 85.2344L81.5037 87.3557C83.3368 89.1887 85.7423 90.05 88.5594 90.05V87.05ZM83.6251 85.2344C82.4514 84.0607 81.8094 82.4696 81.8094 80.3H78.8094C78.8094 83.1171 79.6707 85.5227 81.5037 87.3557L83.6251 85.2344ZM81.8094 80.3V67.65H78.8094V80.3H81.8094ZM81.8094 67.65C81.8094 65.1878 82.4906 63.4651 83.6801 62.2757L81.5587 60.1544C79.6682 62.0449 78.8094 64.6122 78.8094 67.65H81.8094ZM83.6801 62.2757C84.9127 61.043 86.6588 60.35 89.1094 60.35V57.35C86.0601 57.35 83.4794 58.2337 81.5587 60.1544L83.6801 62.2757ZM89.1094 60.35H106.709V57.35H89.1094V60.35ZM105.209 58.85V66.275H108.209V58.85H105.209ZM106.709 64.775H92.1344V67.775H106.709V64.775ZM92.1344 64.775C91.1699 64.775 90.1709 65.0172 89.4238 65.7644C88.6766 66.5115 88.4344 67.5105 88.4344 68.475H91.4344C91.4344 68.2289 91.4657 68.0746 91.4949 67.9869C91.5217 67.9064 91.545 67.8858 91.5451 67.8857C91.5452 67.8856 91.5658 67.8624 91.6463 67.8355C91.734 67.8063 91.8883 67.775 92.1344 67.775V64.775ZM88.4344 68.475V79.2H91.4344V68.475H88.4344ZM88.4344 79.2C88.4344 80.1211 88.7574 80.9693 89.4238 81.6357L91.5451 79.5144C91.4781 79.4474 91.4344 79.379 91.4344 79.2H88.4344ZM89.4238 81.6357C90.0901 82.302 90.9384 82.625 91.8594 82.625V79.625C91.6805 79.625 91.6121 79.5813 91.5451 79.5144L89.4238 81.6357ZM91.8594 82.625C95.2242 82.625 100.225 82.3456 106.834 81.7948L106.585 78.8052C99.9938 79.3545 95.0946 79.625 91.8594 79.625V82.625ZM105.209 80.3V87.45H108.209V80.3H105.209ZM131.295 86.5079C127.787 86.8696 124.355 87.05 120.999 87.05V90.05C124.462 90.05 127.997 89.8638 131.602 89.4921L131.295 86.5079ZM120.999 87.05C118.829 87.05 117.238 86.408 116.064 85.2344L113.943 87.3557C115.776 89.1887 118.182 90.05 120.999 90.05V87.05ZM116.064 85.2344C114.891 84.0607 114.249 82.4696 114.249 80.3H111.249C111.249 83.1171 112.11 85.5227 113.943 87.3557L116.064 85.2344ZM114.249 80.3V66.275H111.249V80.3H114.249ZM112.749 64.775H109.449V67.775H112.749V64.775ZM110.949 66.275V58.85H107.949V66.275H110.949ZM109.449 60.35H112.749V57.35H109.449V60.35ZM114.228 59.0966L115.328 52.4966L112.369 52.0034L111.269 58.6034L114.228 59.0966ZM113.849 53.75H122.374V50.75H113.849V53.75ZM120.874 52.25V58.85H123.874V52.25H120.874ZM122.374 60.35H129.249V57.35H122.374V60.35ZM127.749 58.85V66.275H130.749V58.85H127.749ZM129.249 64.775H122.374V67.775H129.249V64.775ZM120.874 66.275V78.925H123.874V66.275H120.874ZM120.874 78.925C120.874 79.8461 121.197 80.6943 121.863 81.3607L123.984 79.2394C123.917 79.1724 123.874 79.104 123.874 78.925H120.874ZM121.863 81.3607C122.529 82.0271 123.378 82.35 124.299 82.35V79.35C124.12 79.35 124.051 79.3063 123.984 79.2394L121.863 81.3607ZM124.299 82.35H131.449V79.35H124.299V82.35ZM129.949 80.85V88H132.949V80.85H129.949ZM162.448 79.75C162.448 82.2007 161.755 83.9467 160.522 85.1794L162.644 87.3007C164.564 85.38 165.448 82.7994 165.448 79.75H162.448ZM160.522 85.1794C159.333 86.3688 157.61 87.05 155.148 87.05V90.05C158.186 90.05 160.753 89.1912 162.644 87.3007L160.522 85.1794ZM155.148 87.05H142.498V90.05H155.148V87.05ZM142.498 87.05C140.038 87.05 138.287 86.3693 137.056 85.167L134.96 87.3131C136.882 89.1907 139.459 90.05 142.498 90.05V87.05ZM137.081 85.1919C135.879 83.9609 135.198 82.2105 135.198 79.75H132.198C132.198 82.7895 133.057 85.3658 134.935 87.2881L137.081 85.1919ZM135.198 79.75V67.1H132.198V79.75H135.198ZM135.198 67.1C135.198 64.6378 135.879 62.9151 137.069 61.7257L134.947 59.6044C133.057 61.4949 132.198 64.0622 132.198 67.1H135.198ZM137.069 61.7257C138.301 60.493 140.047 59.8 142.498 59.8V56.8C139.449 56.8 136.868 57.6837 134.947 59.6044L137.069 61.7257ZM142.498 59.8H155.148V56.8H142.498V59.8ZM155.148 59.8C157.6 59.8 159.319 60.4935 160.51 61.7131L162.656 59.6169C160.767 57.6833 158.196 56.8 155.148 56.8V59.8ZM160.535 61.7381C161.755 62.9294 162.448 64.6478 162.448 67.1H165.448C165.448 64.0522 164.565 61.4806 162.631 59.592L160.535 61.7381ZM162.448 67.1V79.75H165.448V67.1H162.448ZM155.823 67.925C155.823 66.9605 155.581 65.9615 154.834 65.2144C154.087 64.4672 153.088 64.225 152.123 64.225V67.225C152.369 67.225 152.524 67.2563 152.611 67.2855C152.692 67.3124 152.712 67.3356 152.712 67.3357C152.713 67.3358 152.736 67.3564 152.763 67.4369C152.792 67.5246 152.823 67.6789 152.823 67.925H155.823ZM152.123 64.225H145.523V67.225H152.123V64.225ZM145.523 64.225C144.559 64.225 143.56 64.4672 142.812 65.2144C142.065 65.9616 141.823 66.9605 141.823 67.925H144.823C144.823 67.6789 144.854 67.5246 144.884 67.4369C144.91 67.3564 144.934 67.3358 144.934 67.3357C144.934 67.3356 144.954 67.3124 145.035 67.2855C145.123 67.2563 145.277 67.225 145.523 67.225V64.225ZM141.823 67.925V78.925H144.823V67.925H141.823ZM141.823 78.925C141.823 79.8896 142.065 80.8885 142.812 81.6357C143.56 82.3829 144.559 82.625 145.523 82.625V79.625C145.277 79.625 145.123 79.5937 145.035 79.5645C144.954 79.5377 144.934 79.5145 144.934 79.5144C144.934 79.5143 144.91 79.4936 144.884 79.4132C144.854 79.3255 144.823 79.1712 144.823 78.925H141.823ZM145.523 82.625H152.123V79.625H145.523V82.625ZM152.123 82.625C153.088 82.625 154.087 82.3829 154.834 81.6357C155.581 80.8885 155.823 79.8896 155.823 78.925H152.823C152.823 79.1712 152.792 79.3255 152.763 79.4132C152.736 79.4936 152.713 79.5143 152.712 79.5144C152.712 79.5144 152.692 79.5377 152.611 79.5645C152.524 79.5937 152.369 79.625 152.123 79.625V82.625ZM155.823 78.925V67.925H152.823V78.925H155.823ZM185.667 65.325C183.113 65.325 180.522 65.9338 177.904 67.106L179.13 69.844C181.425 68.8162 183.6 68.325 185.667 68.325V65.325ZM177.017 68.475V88H180.017V68.475H177.017ZM178.517 86.5H168.892V89.5H178.517V86.5ZM170.392 88V58.85H167.392V88H170.392ZM168.892 60.35H177.417V57.35H168.892V60.35ZM175.934 59.0781L176.484 62.6531L179.449 62.1969L178.899 58.6219L175.934 59.0781ZM178.953 63.5555C181.894 60.9905 184.856 59.8 187.867 59.8V56.8C183.984 56.8 180.346 58.3595 176.981 61.2945L178.953 63.5555ZM187.867 59.8H190.342V56.8H187.867V59.8ZM188.842 58.3V66.825H191.842V58.3H188.842ZM190.342 65.325H185.667V68.325H190.342V65.325Z" fill="#20135A" mask="url(#path-1-outside-1_65_2)"/>
</svg>
